<?xml version="1.0" encoding="utf-8" standalone="no"?>
<!DOCTYPE svg PUBLIC "-//W3C//DTD SVG 1.1//EN"
  "http://www.w3.org/Graphics/SVG/1.1/DTD/svg11.dtd">
<!-- Created with matplotlib (http://matplotlib.org/) -->
<svg height="138.24pt" version="1.1" viewBox="0 0 144 138.24" width="144pt" xmlns="http://www.w3.org/2000/svg" xmlns:xlink="http://www.w3.org/1999/xlink">
 <defs>
  <style type="text/css">
*{stroke-linecap:butt;stroke-linejoin:round;}
  </style>
 </defs>
 <g id="figure_1">
  <g id="patch_1">
   <path d="M 0 138.24 
L 144 138.24 
L 144 0 
L 0 0 
z
" style="fill:#ffffff;"/>
  </g>
  <g id="axes_1">
   <g id="patch_2">
    <path d="M 30.49 113.24 
L 130.68 113.24 
L 130.68 13.32 
L 30.49 13.32 
z
" style="fill:#ffffff;"/>
   </g>
   <g id="patch_3">
    <path clip-path="url(#paba6ff40d3)" d="M 55.284495 106.018703 
L 55.016558 104.749183 
L 53.953555 102.275487 
L 53.698309 101.634966 
L 53.435921 100.994446 
L 53.166619 100.353925 
L 52.890589 99.713404 
L 52.60798 99.072883 
L 52.318918 98.432362 
L 52.023519 97.791842 
L 51.721897 97.151321 
L 51.414183 96.5108 
L 51.100531 95.870279 
L 50.781131 95.229759 
L 50.45622 94.589238 
L 50.126094 93.948717 
L 49.791113 93.308196 
L 49.451711 92.667675 
L 49.1084 92.027155 
L 48.761776 91.386634 
L 48.412513 90.746113 
L 48.061361 90.105592 
L 47.70913 89.465072 
L 47.356679 88.824551 
L 47.004887 88.18403 
L 46.654631 87.543509 
L 46.306754 86.902988 
L 45.962034 86.262468 
L 45.621157 85.621947 
L 45.284691 84.981426 
L 44.953074 84.340905 
L 44.626603 83.700384 
L 44.305442 83.059864 
L 43.989637 82.419343 
L 43.679145 81.778822 
L 43.373871 81.138301 
L 43.073712 80.497781 
L 42.7786 79.85726 
L 42.488552 79.216739 
L 42.203703 78.576218 
L 41.924335 77.935697 
L 41.650888 77.295177 
L 41.38396 76.654656 
L 41.124279 76.014135 
L 40.87267 75.373614 
L 40.629994 74.733094 
L 40.397085 74.092573 
L 40.174674 73.452052 
L 39.963318 72.811531 
L 39.763321 72.17101 
L 39.574684 71.53049 
L 39.397054 70.889969 
L 39.229704 70.249448 
L 39.071535 69.608927 
L 38.9211 68.968406 
L 38.776659 68.327886 
L 38.636248 67.687365 
L 38.497775 67.046844 
L 38.359123 66.406323 
L 38.218267 65.765803 
L 38.073379 65.125282 
L 37.922943 64.484761 
L 37.765836 63.84424 
L 37.601409 63.203719 
L 37.429532 62.563199 
L 37.250617 61.922678 
L 37.065613 61.282157 
L 36.875975 60.641636 
L 36.683607 60.001116 
L 36.490787 59.360595 
L 36.300071 58.720074 
L 36.114191 58.079553 
L 35.935942 57.439032 
L 35.768077 56.798512 
L 35.613198 56.157991 
L 35.473667 55.51747 
L 35.351522 54.876949 
L 35.248417 54.236429 
L 35.165578 53.595908 
L 35.103775 52.955387 
L 35.063324 52.314866 
L 35.044091 51.674345 
L 35.045529 51.033825 
L 35.066715 50.393304 
L 35.106409 49.752783 
L 35.163109 49.112262 
L 35.235126 48.471741 
L 35.320648 47.831221 
L 35.417815 47.1907 
L 35.524784 46.550179 
L 35.639802 45.909658 
L 35.761267 45.269138 
L 35.887788 44.628617 
L 36.018243 43.988096 
L 36.151831 43.347575 
L 36.288114 42.707054 
L 36.427055 42.066534 
L 36.569051 41.426013 
L 36.714946 40.785492 
L 36.866036 40.144971 
L 37.024064 39.504451 
L 37.191187 38.86393 
L 37.369933 38.223409 
L 37.563141 37.582888 
L 37.773873 36.942367 
L 38.005325 36.301847 
L 38.260709 35.661326 
L 38.543143 35.020805 
L 38.855518 34.380284 
L 39.200386 33.739763 
L 39.579836 33.099243 
L 39.995396 32.458722 
L 40.447941 31.818201 
L 40.937632 31.17768 
L 41.46387 30.53716 
L 42.025278 29.896639 
L 42.619712 29.256118 
L 43.244292 28.615597 
L 43.895462 27.975076 
L 44.56907 27.334556 
L 45.260462 26.694035 
L 45.964598 26.053514 
L 46.676171 25.412993 
L 47.389733 24.772473 
L 48.099828 24.131952 
L 48.801113 23.491431 
L 49.488479 22.85091 
L 50.157158 22.210389 
L 50.802815 21.569869 
L 51.421624 20.929348 
L 53.512842 18.972556 
L 55.117215 17.861818 
L 55.117215 17.861818 
L 53.512842 18.972556 
L 53.20937 20.929348 
L 52.944755 21.569869 
L 52.664547 22.210389 
L 52.370476 22.85091 
L 52.06476 23.491431 
L 51.750099 24.131952 
L 51.429646 24.772473 
L 51.106953 25.412993 
L 50.785908 26.053514 
L 50.470637 26.694035 
L 50.165407 27.334556 
L 49.874503 27.975076 
L 49.602099 28.615597 
L 49.352131 29.256118 
L 49.128165 29.896639 
L 48.933273 30.53716 
L 48.769929 31.17768 
L 48.639909 31.818201 
L 48.544229 32.458722 
L 48.483094 33.099243 
L 48.455888 33.739763 
L 48.461176 34.380284 
L 48.496753 35.020805 
L 48.559701 35.661326 
L 48.64648 36.301847 
L 48.753029 36.942367 
L 48.874889 37.582888 
L 49.007331 38.223409 
L 49.145483 38.86393 
L 49.284466 39.504451 
L 49.419517 40.144971 
L 49.546108 40.785492 
L 49.660055 41.426013 
L 49.757613 42.066534 
L 49.835559 42.707054 
L 49.891264 43.347575 
L 49.922744 43.988096 
L 49.928704 44.628617 
L 49.908566 45.269138 
L 49.86248 45.909658 
L 49.791323 46.550179 
L 49.696679 47.1907 
L 49.580803 47.831221 
L 49.446566 48.471741 
L 49.297387 49.112262 
L 49.137137 49.752783 
L 48.970031 50.393304 
L 48.800508 51.033825 
L 48.633083 51.674345 
L 48.472208 52.314866 
L 48.322112 52.955387 
L 48.186652 53.595908 
L 48.069173 54.236429 
L 47.972374 54.876949 
L 47.898212 55.51747 
L 47.847822 56.157991 
L 47.821482 56.798512 
L 47.818611 57.439032 
L 47.837816 58.079553 
L 47.876971 58.720074 
L 47.933339 59.360595 
L 48.003721 60.001116 
L 48.084632 60.641636 
L 48.172489 61.282157 
L 48.263793 61.922678 
L 48.35531 62.563199 
L 48.444224 63.203719 
L 48.528263 63.84424 
L 48.605781 64.484761 
L 48.675805 65.125282 
L 48.738032 65.765803 
L 48.792786 66.406323 
L 48.840943 67.046844 
L 48.883819 67.687365 
L 48.923049 68.327886 
L 48.96045 68.968406 
L 48.997891 69.608927 
L 49.037168 70.249448 
L 49.079909 70.889969 
L 49.127493 71.53049 
L 49.181005 72.17101 
L 49.241212 72.811531 
L 49.308575 73.452052 
L 49.383276 74.092573 
L 49.465263 74.733094 
L 49.554311 75.373614 
L 49.650081 76.014135 
L 49.75218 76.654656 
L 49.860211 77.295177 
L 49.973815 77.935697 
L 50.092694 78.576218 
L 50.216627 79.216739 
L 50.345459 79.85726 
L 50.479092 80.497781 
L 50.617454 81.138301 
L 50.76047 81.778822 
L 50.908031 82.419343 
L 51.059958 83.059864 
L 51.215982 83.700384 
L 51.375719 84.340905 
L 51.538671 84.981426 
L 51.704217 85.621947 
L 51.871633 86.262468 
L 52.040109 86.902988 
L 52.208776 87.543509 
L 52.376736 88.18403 
L 52.543098 88.824551 
L 52.707008 89.465072 
L 52.867682 90.105592 
L 53.024424 90.746113 
L 53.17665 91.386634 
L 53.323896 92.027155 
L 53.465822 92.667675 
L 53.602213 93.308196 
L 53.732961 93.948717 
L 53.858059 94.589238 
L 53.977583 95.229759 
L 54.091664 95.870279 
L 54.20048 96.5108 
L 54.304224 97.151321 
L 54.403097 97.791842 
L 54.497286 98.432362 
L 54.586954 99.072883 
L 54.672234 99.713404 
L 54.753222 100.353925 
L 54.829978 100.994446 
L 54.902526 101.634966 
L 54.970865 102.275487 
L 55.344844 104.749183 
z
" style="fill:#f7fcf0;stroke:#f7fcf0;stroke-linejoin:miter;"/>
   </g>
   <g id="patch_4">
    <path clip-path="url(#paba6ff40d3)" d="M 55.284495 106.018703 
L 55.344844 104.749183 
L 54.970865 102.275487 
L 54.902526 101.634966 
L 54.829978 100.994446 
L 54.753222 100.353925 
L 54.672234 99.713404 
L 54.586954 99.072883 
L 54.497286 98.432362 
L 54.403097 97.791842 
L 54.304224 97.151321 
L 54.20048 96.5108 
L 54.091664 95.870279 
L 53.977583 95.229759 
L 53.858059 94.589238 
L 53.732961 93.948717 
L 53.602213 93.308196 
L 53.465822 92.667675 
L 53.323896 92.027155 
L 53.17665 91.386634 
L 53.024424 90.746113 
L 52.867682 90.105592 
L 52.707008 89.465072 
L 52.543098 88.824551 
L 52.376736 88.18403 
L 52.208776 87.543509 
L 52.040109 86.902988 
L 51.871633 86.262468 
L 51.704217 85.621947 
L 51.538671 84.981426 
L 51.375719 84.340905 
L 51.215982 83.700384 
L 51.059958 83.059864 
L 50.908031 82.419343 
L 50.76047 81.778822 
L 50.617454 81.138301 
L 50.479092 80.497781 
L 50.345459 79.85726 
L 50.216627 79.216739 
L 50.092694 78.576218 
L 49.973815 77.935697 
L 49.860211 77.295177 
L 49.75218 76.654656 
L 49.650081 76.014135 
L 49.554311 75.373614 
L 49.465263 74.733094 
L 49.383276 74.092573 
L 49.308575 73.452052 
L 49.241212 72.811531 
L 49.181005 72.17101 
L 49.127493 71.53049 
L 49.079909 70.889969 
L 49.037168 70.249448 
L 48.997891 69.608927 
L 48.96045 68.968406 
L 48.923049 68.327886 
L 48.883819 67.687365 
L 48.840943 67.046844 
L 48.792786 66.406323 
L 48.738032 65.765803 
L 48.675805 65.125282 
L 48.605781 64.484761 
L 48.528263 63.84424 
L 48.444224 63.203719 
L 48.35531 62.563199 
L 48.263793 61.922678 
L 48.172489 61.282157 
L 48.084632 60.641636 
L 48.003721 60.001116 
L 47.933339 59.360595 
L 47.876971 58.720074 
L 47.837816 58.079553 
L 47.818611 57.439032 
L 47.821482 56.798512 
L 47.847822 56.157991 
L 47.898212 55.51747 
L 47.972374 54.876949 
L 48.069173 54.236429 
L 48.186652 53.595908 
L 48.322112 52.955387 
L 48.472208 52.314866 
L 48.633083 51.674345 
L 48.800508 51.033825 
L 48.970031 50.393304 
L 49.137137 49.752783 
L 49.297387 49.112262 
L 49.446566 48.471741 
L 49.580803 47.831221 
L 49.696679 47.1907 
L 49.791323 46.550179 
L 49.86248 45.909658 
L 49.908566 45.269138 
L 49.928704 44.628617 
L 49.922744 43.988096 
L 49.891264 43.347575 
L 49.835559 42.707054 
L 49.757613 42.066534 
L 49.660055 41.426013 
L 49.546108 40.785492 
L 49.419517 40.144971 
L 49.284466 39.504451 
L 49.145483 38.86393 
L 49.007331 38.223409 
L 48.874889 37.582888 
L 48.753029 36.942367 
L 48.64648 36.301847 
L 48.559701 35.661326 
L 48.496753 35.020805 
L 48.461176 34.380284 
L 48.455888 33.739763 
L 48.483094 33.099243 
L 48.544229 32.458722 
L 48.639909 31.818201 
L 48.769929 31.17768 
L 48.933273 30.53716 
L 49.128165 29.896639 
L 49.352131 29.256118 
L 49.602099 28.615597 
L 49.874503 27.975076 
L 50.165407 27.334556 
L 50.470637 26.694035 
L 50.785908 26.053514 
L 51.106953 25.412993 
L 51.429646 24.772473 
L 51.750099 24.131952 
L 52.06476 23.491431 
L 52.370476 22.85091 
L 52.664547 22.210389 
L 52.944755 21.569869 
L 53.20937 20.929348 
L 53.512842 18.972556 
L 55.117215 17.861818 
L 55.451775 17.861818 
L 54.218253 18.972556 
L 54.738197 20.929348 
L 54.790438 21.569869 
L 54.849165 22.210389 
L 54.914562 22.85091 
L 54.986773 23.491431 
L 55.065915 24.131952 
L 55.152098 24.772473 
L 55.245452 25.412993 
L 55.346149 26.053514 
L 55.454434 26.694035 
L 55.570642 27.334556 
L 55.695218 27.975076 
L 55.828725 28.615597 
L 55.971844 29.256118 
L 56.125355 29.896639 
L 56.290114 30.53716 
L 56.467012 31.17768 
L 56.656922 31.818201 
L 56.860644 32.458722 
L 57.07884 33.099243 
L 57.311966 33.739763 
L 57.560219 34.380284 
L 57.823477 35.020805 
L 58.101262 35.661326 
L 58.392709 36.301847 
L 58.69656 36.942367 
L 59.011164 37.582888 
L 59.334501 38.223409 
L 59.664214 38.86393 
L 59.997659 39.504451 
L 60.331959 40.144971 
L 60.664068 40.785492 
L 60.990837 41.426013 
L 61.309087 42.066534 
L 61.615673 42.707054 
L 61.907564 43.347575 
L 62.181903 43.988096 
L 62.43608 44.628617 
L 62.667798 45.269138 
L 62.87513 45.909658 
L 63.056577 46.550179 
L 63.211119 47.1907 
L 63.338245 47.831221 
L 63.437984 48.471741 
L 63.510905 49.112262 
L 63.558108 49.752783 
L 63.581185 50.393304 
L 63.582169 51.033825 
L 63.563451 51.674345 
L 63.527688 52.314866 
L 63.477693 52.955387 
L 63.416313 53.595908 
L 63.346317 54.236429 
L 63.270273 54.876949 
L 63.190456 55.51747 
L 63.108756 56.157991 
L 63.026631 56.798512 
L 62.945066 57.439032 
L 62.864577 58.079553 
L 62.785241 58.720074 
L 62.706741 59.360595 
L 62.628444 60.001116 
L 62.549491 60.641636 
L 62.468891 61.282157 
L 62.385626 61.922678 
L 62.298739 62.563199 
L 62.207425 63.203719 
L 62.111098 63.84424 
L 62.00944 64.484761 
L 61.902437 65.125282 
L 61.790387 65.765803 
L 61.673891 66.406323 
L 61.553829 67.046844 
L 61.431318 67.687365 
L 61.307661 68.327886 
L 61.184287 68.968406 
L 61.062691 69.608927 
L 60.94437 70.249448 
L 60.830758 70.889969 
L 60.723172 71.53049 
L 60.622762 72.17101 
L 60.530464 72.811531 
L 60.446964 73.452052 
L 60.372674 74.092573 
L 60.307709 74.733094 
L 60.251878 75.373614 
L 60.204688 76.014135 
L 60.165345 76.654656 
L 60.132785 77.295177 
L 60.105694 77.935697 
L 60.082553 78.576218 
L 60.061689 79.216739 
L 60.041328 79.85726 
L 60.019663 80.497781 
L 59.994918 81.138301 
L 59.965418 81.778822 
L 59.929647 82.419343 
L 59.886313 83.059864 
L 59.834384 83.700384 
L 59.773124 84.340905 
L 59.702108 84.981426 
L 59.621219 85.621947 
L 59.530629 86.262468 
L 59.430767 86.902988 
L 59.322274 87.543509 
L 59.205946 88.18403 
L 59.082678 88.824551 
L 58.953405 89.465072 
L 58.819049 90.105592 
L 58.680474 90.746113 
L 58.538451 91.386634 
L 58.393638 92.027155 
L 58.24657 92.667675 
L 58.097668 93.308196 
L 57.94725 93.948717 
L 57.795561 94.589238 
L 57.642799 95.229759 
L 57.489149 95.870279 
L 57.334817 96.5108 
L 57.180055 97.151321 
L 57.025185 97.791842 
L 56.870612 98.432362 
L 56.716833 99.072883 
L 56.56443 99.713404 
L 56.41406 100.353925 
L 56.266438 100.994446 
L 56.122313 101.634966 
L 55.982444 102.275487 
L 55.344844 104.749183 
z
" style="fill:#b4e2ba;stroke:#b4e2ba;stroke-linejoin:miter;"/>
   </g>
   <g id="patch_5">
    <path clip-path="url(#paba6ff40d3)" d="M 55.284495 106.018703 
L 55.344844 104.749183 
L 55.982444 102.275487 
L 56.122313 101.634966 
L 56.266438 100.994446 
L 56.41406 100.353925 
L 56.56443 99.713404 
L 56.716833 99.072883 
L 56.870612 98.432362 
L 57.025185 97.791842 
L 57.180055 97.151321 
L 57.334817 96.5108 
L 57.489149 95.870279 
L 57.642799 95.229759 
L 57.795561 94.589238 
L 57.94725 93.948717 
L 58.097668 93.308196 
L 58.24657 92.667675 
L 58.393638 92.027155 
L 58.538451 91.386634 
L 58.680474 90.746113 
L 58.819049 90.105592 
L 58.953405 89.465072 
L 59.082678 88.824551 
L 59.205946 88.18403 
L 59.322274 87.543509 
L 59.430767 86.902988 
L 59.530629 86.262468 
L 59.621219 85.621947 
L 59.702108 84.981426 
L 59.773124 84.340905 
L 59.834384 83.700384 
L 59.886313 83.059864 
L 59.929647 82.419343 
L 59.965418 81.778822 
L 59.994918 81.138301 
L 60.019663 80.497781 
L 60.041328 79.85726 
L 60.061689 79.216739 
L 60.082553 78.576218 
L 60.105694 77.935697 
L 60.132785 77.295177 
L 60.165345 76.654656 
L 60.204688 76.014135 
L 60.251878 75.373614 
L 60.307709 74.733094 
L 60.372674 74.092573 
L 60.446964 73.452052 
L 60.530464 72.811531 
L 60.622762 72.17101 
L 60.723172 71.53049 
L 60.830758 70.889969 
L 60.94437 70.249448 
L 61.062691 69.608927 
L 61.184287 68.968406 
L 61.307661 68.327886 
L 61.431318 67.687365 
L 61.553829 67.046844 
L 61.673891 66.406323 
L 61.790387 65.765803 
L 61.902437 65.125282 
L 62.00944 64.484761 
L 62.111098 63.84424 
L 62.207425 63.203719 
L 62.298739 62.563199 
L 62.385626 61.922678 
L 62.468891 61.282157 
L 62.549491 60.641636 
L 62.628444 60.001116 
L 62.706741 59.360595 
L 62.785241 58.720074 
L 62.864577 58.079553 
L 62.945066 57.439032 
L 63.026631 56.798512 
L 63.108756 56.157991 
L 63.190456 55.51747 
L 63.270273 54.876949 
L 63.346317 54.236429 
L 63.416313 53.595908 
L 63.477693 52.955387 
L 63.527688 52.314866 
L 63.563451 51.674345 
L 63.582169 51.033825 
L 63.581185 50.393304 
L 63.558108 49.752783 
L 63.510905 49.112262 
L 63.437984 48.471741 
L 63.338245 47.831221 
L 63.211119 47.1907 
L 63.056577 46.550179 
L 62.87513 45.909658 
L 62.667798 45.269138 
L 62.43608 44.628617 
L 62.181903 43.988096 
L 61.907564 43.347575 
L 61.615673 42.707054 
L 61.309087 42.066534 
L 60.990837 41.426013 
L 60.664068 40.785492 
L 60.331959 40.144971 
L 59.997659 39.504451 
L 59.664214 38.86393 
L 59.334501 38.223409 
L 59.011164 37.582888 
L 58.69656 36.942367 
L 58.392709 36.301847 
L 58.101262 35.661326 
L 57.823477 35.020805 
L 57.560219 34.380284 
L 57.311966 33.739763 
L 57.07884 33.099243 
L 56.860644 32.458722 
L 56.656922 31.818201 
L 56.467012 31.17768 
L 56.290114 30.53716 
L 56.125355 29.896639 
L 55.971844 29.256118 
L 55.828725 28.615597 
L 55.695218 27.975076 
L 55.570642 27.334556 
L 55.454434 26.694035 
L 55.346149 26.053514 
L 55.245452 25.412993 
L 55.152098 24.772473 
L 55.065915 24.131952 
L 54.986773 23.491431 
L 54.914562 22.85091 
L 54.849165 22.210389 
L 54.790438 21.569869 
L 54.738197 20.929348 
L 54.218253 18.972556 
L 55.451775 17.861818 
L 55.451775 17.861818 
L 57.056147 18.972556 
L 59.147366 20.929348 
L 59.766175 21.569869 
L 60.411831 22.210389 
L 61.080511 22.85091 
L 61.767877 23.491431 
L 62.469162 24.131952 
L 63.179257 24.772473 
L 63.892819 25.412993 
L 64.604392 26.053514 
L 65.308528 26.694035 
L 65.99992 27.334556 
L 66.673528 27.975076 
L 67.324698 28.615597 
L 67.949278 29.256118 
L 68.543711 29.896639 
L 69.10512 30.53716 
L 69.631358 31.17768 
L 70.121049 31.818201 
L 70.573594 32.458722 
L 70.989153 33.099243 
L 71.368604 33.739763 
L 71.713471 34.380284 
L 72.025847 35.020805 
L 72.308281 35.661326 
L 72.563665 36.301847 
L 72.795117 36.942367 
L 73.005849 37.582888 
L 73.199057 38.223409 
L 73.377803 38.86393 
L 73.544926 39.504451 
L 73.702954 40.144971 
L 73.854044 40.785492 
L 73.999939 41.426013 
L 74.141934 42.066534 
L 74.280876 42.707054 
L 74.417159 43.347575 
L 74.550746 43.988096 
L 74.681202 44.628617 
L 74.807723 45.269138 
L 74.929188 45.909658 
L 75.044206 46.550179 
L 75.151175 47.1907 
L 75.248342 47.831221 
L 75.333864 48.471741 
L 75.405881 49.112262 
L 75.462581 49.752783 
L 75.502274 50.393304 
L 75.523461 51.033825 
L 75.524899 51.674345 
L 75.505666 52.314866 
L 75.465215 52.955387 
L 75.403412 53.595908 
L 75.320573 54.236429 
L 75.217468 54.876949 
L 75.095323 55.51747 
L 74.955791 56.157991 
L 74.800913 56.798512 
L 74.633048 57.439032 
L 74.454799 58.079553 
L 74.268919 58.720074 
L 74.078203 59.360595 
L 73.885383 60.001116 
L 73.693015 60.641636 
L 73.503377 61.282157 
L 73.318373 61.922678 
L 73.139458 62.563199 
L 72.967581 63.203719 
L 72.803154 63.84424 
L 72.646047 64.484761 
L 72.49561 65.125282 
L 72.350723 65.765803 
L 72.209866 66.406323 
L 72.071215 67.046844 
L 71.932742 67.687365 
L 71.792331 68.327886 
L 71.64789 68.968406 
L 71.497455 69.608927 
L 71.339286 70.249448 
L 71.171936 70.889969 
L 70.994306 71.53049 
L 70.805669 72.17101 
L 70.605672 72.811531 
L 70.394316 73.452052 
L 70.171905 74.092573 
L 69.938996 74.733094 
L 69.69632 75.373614 
L 69.444711 76.014135 
L 69.18503 76.654656 
L 68.918102 77.295177 
L 68.644655 77.935697 
L 68.365287 78.576218 
L 68.080438 79.216739 
L 67.79039 79.85726 
L 67.495278 80.497781 
L 67.195119 81.138301 
L 66.889845 81.778822 
L 66.579353 82.419343 
L 66.263548 83.059864 
L 65.942387 83.700384 
L 65.615916 84.340905 
L 65.284299 84.981426 
L 64.947833 85.621947 
L 64.606956 86.262468 
L 64.262236 86.902988 
L 63.914359 87.543509 
L 63.564103 88.18403 
L 63.212311 88.824551 
L 62.85986 89.465072 
L 62.507629 90.105592 
L 62.156476 90.746113 
L 61.807214 91.386634 
L 61.460589 92.027155 
L 61.117279 92.667675 
L 60.777877 93.308196 
L 60.442895 93.948717 
L 60.112769 94.589238 
L 59.787859 95.229759 
L 59.468459 95.870279 
L 59.154806 96.5108 
L 58.847092 97.151321 
L 58.545471 97.791842 
L 58.250072 98.432362 
L 57.96101 99.072883 
L 57.678401 99.713404 
L 57.402371 100.353925 
L 57.133069 100.994446 
L 56.870681 101.634966 
L 56.615435 102.275487 
L 55.552432 104.749183 
z
" style="fill:#42a6cc;stroke:#42a6cc;stroke-linejoin:miter;"/>
   </g>
   <g id="patch_6">
    <path clip-path="url(#paba6ff40d3)" d="M 105.885505 108.698182 
L 105.177115 107.619948 
L 104.476148 106.016532 
L 104.305259 105.464778 
L 104.12917 104.913025 
L 103.947868 104.361271 
L 103.761217 103.809518 
L 103.568958 103.257764 
L 103.370719 102.706011 
L 103.166028 102.154257 
L 102.954333 101.602504 
L 102.735014 101.05075 
L 102.50741 100.498997 
L 102.270828 99.947243 
L 102.024561 99.395489 
L 101.767896 98.843736 
L 101.500123 98.291982 
L 101.220538 97.740229 
L 100.92845 97.188475 
L 100.623183 96.636722 
L 100.304093 96.084968 
L 99.970577 95.533215 
L 99.6221 94.981461 
L 99.258227 94.429707 
L 98.878667 93.877954 
L 98.483313 93.3262 
L 98.072302 92.774447 
L 97.64606 92.222693 
L 97.205357 91.67094 
L 96.751342 91.119186 
L 96.285567 90.567433 
L 95.809999 90.015679 
L 95.326998 89.463925 
L 94.83928 88.912172 
L 94.349855 88.360418 
L 93.86194 87.808665 
L 93.378853 87.256911 
L 92.9039 86.705158 
L 92.440249 86.153404 
L 91.990811 85.601651 
L 91.558127 85.049897 
L 91.144274 84.498143 
L 90.750792 83.94639 
L 90.378646 83.394636 
L 90.028208 82.842883 
L 89.69928 82.291129 
L 89.391142 81.739376 
L 89.102629 81.187622 
L 88.832226 80.635869 
L 88.578181 80.084115 
L 88.338617 79.532362 
L 88.111652 78.980608 
L 87.895505 78.428854 
L 87.688589 77.877101 
L 87.489592 77.325347 
L 87.29753 76.773594 
L 87.111791 76.22184 
L 86.932148 75.670087 
L 86.758764 75.118333 
L 86.592189 74.56658 
L 86.433333 74.014826 
L 86.283453 73.463072 
L 86.144114 72.911319 
L 86.017169 72.359565 
L 85.90472 71.807812 
L 85.809075 71.256058 
L 85.73271 70.704305 
L 85.678198 70.152551 
L 85.648145 69.600798 
L 85.645101 69.049044 
L 85.671456 68.49729 
L 85.729333 67.945537 
L 85.820467 67.393783 
L 85.946096 66.84203 
L 86.106851 66.290276 
L 86.302679 65.738523 
L 86.532792 65.186769 
L 86.795646 64.635016 
L 87.088973 64.083262 
L 87.409853 63.531508 
L 87.754821 62.979755 
L 88.120018 62.428001 
L 88.501357 61.876248 
L 88.894711 61.324494 
L 89.296088 60.772741 
L 89.701807 60.220987 
L 90.108631 59.669234 
L 90.513875 59.11748 
L 90.915471 58.565727 
L 91.311982 58.013973 
L 91.702575 57.462219 
L 92.086966 56.910466 
L 92.465318 56.358712 
L 92.838131 55.806959 
L 93.20612 55.255205 
L 93.570091 54.703452 
L 93.930826 54.151698 
L 94.288995 53.599945 
L 94.645078 53.048191 
L 94.999325 52.496437 
L 95.351732 51.944684 
L 95.702052 51.39293 
L 96.049819 50.841177 
L 96.394393 50.289423 
L 96.735014 49.73767 
L 97.070867 49.185916 
L 97.401138 48.634163 
L 97.725075 48.082409 
L 98.042035 47.530655 
L 98.351525 46.978902 
L 98.653228 46.427148 
L 98.947011 45.875395 
L 99.232931 45.323641 
L 99.511217 44.771888 
L 99.782255 44.220134 
L 100.04655 43.668381 
L 100.304696 43.116627 
L 100.557339 42.564873 
L 100.805134 42.01312 
L 101.048716 41.461366 
L 101.288659 40.909613 
L 101.525458 40.357859 
L 101.759501 39.806106 
L 101.991056 39.254352 
L 102.220262 38.702599 
L 102.447126 38.150845 
L 102.671523 37.599092 
L 102.893203 37.047338 
L 103.111803 36.495584 
L 103.326862 35.943831 
L 104.689062 33.775847 
L 105.85836 27.027465 
L 105.85836 27.027465 
L 105.568017 33.775847 
L 104.520522 35.943831 
L 104.389406 36.495584 
L 104.258948 37.047338 
L 104.131341 37.599092 
L 104.008784 38.150845 
L 103.893379 38.702599 
L 103.787016 39.254352 
L 103.691273 39.806106 
L 103.60733 40.357859 
L 103.535902 40.909613 
L 103.477193 41.461366 
L 103.430889 42.01312 
L 103.396175 42.564873 
L 103.37178 43.116627 
L 103.356055 43.668381 
L 103.347066 44.220134 
L 103.342706 44.771888 
L 103.340807 45.323641 
L 103.339255 45.875395 
L 103.336095 46.427148 
L 103.32962 46.978902 
L 103.318434 47.530655 
L 103.301495 48.082409 
L 103.278137 48.634163 
L 103.248055 49.185916 
L 103.211285 49.73767 
L 103.168153 50.289423 
L 103.119225 50.841177 
L 103.065241 51.39293 
L 103.007048 51.944684 
L 102.94554 52.496437 
L 102.881593 53.048191 
L 102.816011 53.599945 
L 102.749474 54.151698 
L 102.682496 54.703452 
L 102.615384 55.255205 
L 102.548206 55.806959 
L 102.480766 56.358712 
L 102.412586 56.910466 
L 102.342907 57.462219 
L 102.270692 58.013973 
L 102.194662 58.565727 
L 102.113342 59.11748 
L 102.025132 59.669234 
L 101.928402 60.220987 
L 101.821599 60.772741 
L 101.703376 61.324494 
L 101.572718 61.876248 
L 101.429071 62.428001 
L 101.272457 62.979755 
L 101.103561 63.531508 
L 100.923788 64.083262 
L 100.735278 64.635016 
L 100.540876 65.186769 
L 100.344055 65.738523 
L 100.1488 66.290276 
L 99.959447 66.84203 
L 99.780506 67.393783 
L 99.616465 67.945537 
L 99.471592 68.49729 
L 99.349754 69.049044 
L 99.254262 69.600798 
L 99.187743 70.152551 
L 99.152062 70.704305 
L 99.148279 71.256058 
L 99.176649 71.807812 
L 99.236662 72.359565 
L 99.327102 72.911319 
L 99.446132 73.463072 
L 99.591389 74.014826 
L 99.760075 74.56658 
L 99.949047 75.118333 
L 100.154893 75.670087 
L 100.373996 76.22184 
L 100.602593 76.773594 
L 100.836818 77.325347 
L 101.072745 77.877101 
L 101.306443 78.428854 
L 101.534022 78.980608 
L 101.75171 79.532362 
L 101.955928 80.084115 
L 102.143391 80.635869 
L 102.311208 81.187622 
L 102.456995 81.739376 
L 102.578974 82.291129 
L 102.676066 82.842883 
L 102.747956 83.394636 
L 102.795128 83.94639 
L 102.818862 84.498143 
L 102.821197 85.049897 
L 102.804839 85.601651 
L 102.773046 86.153404 
L 102.729481 86.705158 
L 102.678034 87.256911 
L 102.622651 87.808665 
L 102.567156 88.360418 
L 102.515089 88.912172 
L 102.469577 89.463925 
L 102.433226 90.015679 
L 102.408067 90.567433 
L 102.395526 91.119186 
L 102.396444 91.67094 
L 102.411127 92.222693 
L 102.43942 92.774447 
L 102.480798 93.3262 
L 102.534476 93.877954 
L 102.599499 94.429707 
L 102.674842 94.981461 
L 102.759478 95.533215 
L 102.852442 96.084968 
L 102.952856 96.636722 
L 103.059944 97.188475 
L 103.173026 97.740229 
L 103.291493 98.291982 
L 103.414774 98.843736 
L 103.542299 99.395489 
L 103.673464 99.947243 
L 103.807604 100.498997 
L 103.943967 101.05075 
L 104.081713 101.602504 
L 104.219921 102.154257 
L 104.3576 102.706011 
L 104.493729 103.257764 
L 104.627282 103.809518 
L 104.757277 104.361271 
L 104.882806 104.913025 
L 105.003079 105.464778 
L 105.117445 106.016532 
L 105.177115 107.619948 
z
" style="fill:#f7fcf0;stroke:#f7fcf0;stroke-linejoin:miter;"/>
   </g>
   <g id="patch_7">
    <path clip-path="url(#paba6ff40d3)" d="M 105.885505 108.698182 
L 105.177115 107.619948 
L 105.117445 106.016532 
L 105.003079 105.464778 
L 104.882806 104.913025 
L 104.757277 104.361271 
L 104.627282 103.809518 
L 104.493729 103.257764 
L 104.3576 102.706011 
L 104.219921 102.154257 
L 104.081713 101.602504 
L 103.943967 101.05075 
L 103.807604 100.498997 
L 103.673464 99.947243 
L 103.542299 99.395489 
L 103.414774 98.843736 
L 103.291493 98.291982 
L 103.173026 97.740229 
L 103.059944 97.188475 
L 102.952856 96.636722 
L 102.852442 96.084968 
L 102.759478 95.533215 
L 102.674842 94.981461 
L 102.599499 94.429707 
L 102.534476 93.877954 
L 102.480798 93.3262 
L 102.43942 92.774447 
L 102.411127 92.222693 
L 102.396444 91.67094 
L 102.395526 91.119186 
L 102.408067 90.567433 
L 102.433226 90.015679 
L 102.469577 89.463925 
L 102.515089 88.912172 
L 102.567156 88.360418 
L 102.622651 87.808665 
L 102.678034 87.256911 
L 102.729481 86.705158 
L 102.773046 86.153404 
L 102.804839 85.601651 
L 102.821197 85.049897 
L 102.818862 84.498143 
L 102.795128 83.94639 
L 102.747956 83.394636 
L 102.676066 82.842883 
L 102.578974 82.291129 
L 102.456995 81.739376 
L 102.311208 81.187622 
L 102.143391 80.635869 
L 101.955928 80.084115 
L 101.75171 79.532362 
L 101.534022 78.980608 
L 101.306443 78.428854 
L 101.072745 77.877101 
L 100.836818 77.325347 
L 100.602593 76.773594 
L 100.373996 76.22184 
L 100.154893 75.670087 
L 99.949047 75.118333 
L 99.760075 74.56658 
L 99.591389 74.014826 
L 99.446132 73.463072 
L 99.327102 72.911319 
L 99.236662 72.359565 
L 99.176649 71.807812 
L 99.148279 71.256058 
L 99.152062 70.704305 
L 99.187743 70.152551 
L 99.254262 69.600798 
L 99.349754 69.049044 
L 99.471592 68.49729 
L 99.616465 67.945537 
L 99.780506 67.393783 
L 99.959447 66.84203 
L 100.1488 66.290276 
L 100.344055 65.738523 
L 100.540876 65.186769 
L 100.735278 64.635016 
L 100.923788 64.083262 
L 101.103561 63.531508 
L 101.272457 62.979755 
L 101.429071 62.428001 
L 101.572718 61.876248 
L 101.703376 61.324494 
L 101.821599 60.772741 
L 101.928402 60.220987 
L 102.025132 59.669234 
L 102.113342 59.11748 
L 102.194662 58.565727 
L 102.270692 58.013973 
L 102.342907 57.462219 
L 102.412586 56.910466 
L 102.480766 56.358712 
L 102.548206 55.806959 
L 102.615384 55.255205 
L 102.682496 54.703452 
L 102.749474 54.151698 
L 102.816011 53.599945 
L 102.881593 53.048191 
L 102.94554 52.496437 
L 103.007048 51.944684 
L 103.065241 51.39293 
L 103.119225 50.841177 
L 103.168153 50.289423 
L 103.211285 49.73767 
L 103.248055 49.185916 
L 103.278137 48.634163 
L 103.301495 48.082409 
L 103.318434 47.530655 
L 103.32962 46.978902 
L 103.336095 46.427148 
L 103.339255 45.875395 
L 103.340807 45.323641 
L 103.342706 44.771888 
L 103.347066 44.220134 
L 103.356055 43.668381 
L 103.37178 43.116627 
L 103.396175 42.564873 
L 103.430889 42.01312 
L 103.477193 41.461366 
L 103.535902 40.909613 
L 103.60733 40.357859 
L 103.691273 39.806106 
L 103.787016 39.254352 
L 103.893379 38.702599 
L 104.008784 38.150845 
L 104.131341 37.599092 
L 104.258948 37.047338 
L 104.389406 36.495584 
L 104.520522 35.943831 
L 105.568017 33.775847 
L 105.85836 27.027465 
L 105.85836 27.027465 
L 105.568017 33.775847 
L 106.023352 35.943831 
L 105.971307 36.495584 
L 105.911044 37.047338 
L 105.84416 37.599092 
L 105.772538 38.150845 
L 105.698242 38.702599 
L 105.623409 39.254352 
L 105.550132 39.806106 
L 105.480351 40.357859 
L 105.415752 40.909613 
L 105.357689 41.461366 
L 105.307134 42.01312 
L 105.264649 42.564873 
L 105.230399 43.116627 
L 105.204185 43.668381 
L 105.185514 44.220134 
L 105.173677 44.771888 
L 105.167852 45.323641 
L 105.167207 45.875395 
L 105.171 46.427148 
L 105.17867 46.978902 
L 105.189909 47.530655 
L 105.204719 48.082409 
L 105.223443 48.634163 
L 105.246768 49.185916 
L 105.275721 49.73767 
L 105.311629 50.289423 
L 105.356083 50.841177 
L 105.410874 51.39293 
L 105.477941 51.944684 
L 105.559297 52.496437 
L 105.65697 53.048191 
L 105.772929 53.599945 
L 105.909018 54.151698 
L 106.066889 54.703452 
L 106.247928 55.255205 
L 106.453189 55.806959 
L 106.683322 56.358712 
L 106.938514 56.910466 
L 107.218432 57.462219 
L 107.522185 58.013973 
L 107.848299 58.565727 
L 108.194725 59.11748 
L 108.558867 59.669234 
L 108.937648 60.220987 
L 109.327598 60.772741 
L 109.724977 61.324494 
L 110.125913 61.876248 
L 110.526552 62.428001 
L 110.923216 62.979755 
L 111.312543 63.531508 
L 111.691611 64.083262 
L 112.058029 64.635016 
L 112.40999 65.186769 
L 112.746283 65.738523 
L 113.066263 66.290276 
L 113.369782 66.84203 
L 113.657091 67.393783 
L 113.928723 67.945537 
L 114.185371 68.49729 
L 114.427763 69.049044 
L 114.656566 69.600798 
L 114.872302 70.152551 
L 115.075307 70.704305 
L 115.265712 71.256058 
L 115.443464 71.807812 
L 115.608361 72.359565 
L 115.760108 72.911319 
L 115.898382 73.463072 
L 116.02288 74.014826 
L 116.133363 74.56658 
L 116.229676 75.118333 
L 116.311735 75.670087 
L 116.379505 76.22184 
L 116.432938 76.773594 
L 116.471914 77.325347 
L 116.496168 77.877101 
L 116.50523 78.428854 
L 116.498376 78.980608 
L 116.474613 79.532362 
L 116.432694 80.084115 
L 116.371168 80.635869 
L 116.288467 81.187622 
L 116.183019 81.739376 
L 116.053384 82.291129 
L 115.898395 82.842883 
L 115.717297 83.394636 
L 115.509864 83.94639 
L 115.276488 84.498143 
L 115.018234 85.049897 
L 114.736838 85.601651 
L 114.434673 86.153404 
L 114.114661 86.705158 
L 113.780159 87.256911 
L 113.434811 87.808665 
L 113.082391 88.360418 
L 112.726645 88.912172 
L 112.371138 89.463925 
L 112.019133 90.015679 
L 111.673491 90.567433 
L 111.336613 91.119186 
L 111.01041 91.67094 
L 110.696315 92.222693 
L 110.39532 92.774447 
L 110.108034 93.3262 
L 109.834758 93.877954 
L 109.57556 94.429707 
L 109.330353 94.981461 
L 109.098959 95.533215 
L 108.881154 96.084968 
L 108.676706 96.636722 
L 108.485382 97.188475 
L 108.306947 97.740229 
L 108.141151 98.291982 
L 107.987698 98.843736 
L 107.846222 99.395489 
L 107.716262 99.947243 
L 107.597241 100.498997 
L 107.488456 101.05075 
L 107.389085 101.602504 
L 107.298198 102.154257 
L 107.214786 102.706011 
L 107.137798 103.257764 
L 107.066182 103.809518 
L 106.998929 104.361271 
L 106.935116 104.913025 
L 106.873943 105.464778 
L 106.814759 106.016532 
L 106.41498 107.619948 
z
" style="fill:#b4e2ba;stroke:#b4e2ba;stroke-linejoin:miter;"/>
   </g>
   <g id="patch_8">
    <path clip-path="url(#paba6ff40d3)" d="M 105.885505 108.698182 
L 106.41498 107.619948 
L 106.814759 106.016532 
L 106.873943 105.464778 
L 106.935116 104.913025 
L 106.998929 104.361271 
L 107.066182 103.809518 
L 107.137798 103.257764 
L 107.214786 102.706011 
L 107.298198 102.154257 
L 107.389085 101.602504 
L 107.488456 101.05075 
L 107.597241 100.498997 
L 107.716262 99.947243 
L 107.846222 99.395489 
L 107.987698 98.843736 
L 108.141151 98.291982 
L 108.306947 97.740229 
L 108.485382 97.188475 
L 108.676706 96.636722 
L 108.881154 96.084968 
L 109.098959 95.533215 
L 109.330353 94.981461 
L 109.57556 94.429707 
L 109.834758 93.877954 
L 110.108034 93.3262 
L 110.39532 92.774447 
L 110.696315 92.222693 
L 111.01041 91.67094 
L 111.336613 91.119186 
L 111.673491 90.567433 
L 112.019133 90.015679 
L 112.371138 89.463925 
L 112.726645 88.912172 
L 113.082391 88.360418 
L 113.434811 87.808665 
L 113.780159 87.256911 
L 114.114661 86.705158 
L 114.434673 86.153404 
L 114.736838 85.601651 
L 115.018234 85.049897 
L 115.276488 84.498143 
L 115.509864 83.94639 
L 115.717297 83.394636 
L 115.898395 82.842883 
L 116.053384 82.291129 
L 116.183019 81.739376 
L 116.288467 81.187622 
L 116.371168 80.635869 
L 116.432694 80.084115 
L 116.474613 79.532362 
L 116.498376 78.980608 
L 116.50523 78.428854 
L 116.496168 77.877101 
L 116.471914 77.325347 
L 116.432938 76.773594 
L 116.379505 76.22184 
L 116.311735 75.670087 
L 116.229676 75.118333 
L 116.133363 74.56658 
L 116.02288 74.014826 
L 115.898382 73.463072 
L 115.760108 72.911319 
L 115.608361 72.359565 
L 115.443464 71.807812 
L 115.265712 71.256058 
L 115.075307 70.704305 
L 114.872302 70.152551 
L 114.656566 69.600798 
L 114.427763 69.049044 
L 114.185371 68.49729 
L 113.928723 67.945537 
L 113.657091 67.393783 
L 113.369782 66.84203 
L 113.066263 66.290276 
L 112.746283 65.738523 
L 112.40999 65.186769 
L 112.058029 64.635016 
L 111.691611 64.083262 
L 111.312543 63.531508 
L 110.923216 62.979755 
L 110.526552 62.428001 
L 110.125913 61.876248 
L 109.724977 61.324494 
L 109.327598 60.772741 
L 108.937648 60.220987 
L 108.558867 59.669234 
L 108.194725 59.11748 
L 107.848299 58.565727 
L 107.522185 58.013973 
L 107.218432 57.462219 
L 106.938514 56.910466 
L 106.683322 56.358712 
L 106.453189 55.806959 
L 106.247928 55.255205 
L 106.066889 54.703452 
L 105.909018 54.151698 
L 105.772929 53.599945 
L 105.65697 53.048191 
L 105.559297 52.496437 
L 105.477941 51.944684 
L 105.410874 51.39293 
L 105.356083 50.841177 
L 105.311629 50.289423 
L 105.275721 49.73767 
L 105.246768 49.185916 
L 105.223443 48.634163 
L 105.204719 48.082409 
L 105.189909 47.530655 
L 105.17867 46.978902 
L 105.171 46.427148 
L 105.167207 45.875395 
L 105.167852 45.323641 
L 105.173677 44.771888 
L 105.185514 44.220134 
L 105.204185 43.668381 
L 105.230399 43.116627 
L 105.264649 42.564873 
L 105.307134 42.01312 
L 105.357689 41.461366 
L 105.415752 40.909613 
L 105.480351 40.357859 
L 105.550132 39.806106 
L 105.623409 39.254352 
L 105.698242 38.702599 
L 105.772538 38.150845 
L 105.84416 37.599092 
L 105.911044 37.047338 
L 105.971307 36.495584 
L 106.023352 35.943831 
L 105.568017 33.775847 
L 105.85836 27.027465 
L 105.91265 27.027465 
L 107.081948 33.775847 
L 108.444148 35.943831 
L 108.659207 36.495584 
L 108.877807 37.047338 
L 109.099487 37.599092 
L 109.323884 38.150845 
L 109.550748 38.702599 
L 109.779954 39.254352 
L 110.011509 39.806106 
L 110.245552 40.357859 
L 110.482351 40.909613 
L 110.722294 41.461366 
L 110.965876 42.01312 
L 111.213671 42.564873 
L 111.466314 43.116627 
L 111.724461 43.668381 
L 111.988755 44.220134 
L 112.259793 44.771888 
L 112.53808 45.323641 
L 112.823999 45.875395 
L 113.117782 46.427148 
L 113.419485 46.978902 
L 113.728975 47.530655 
L 114.045936 48.082409 
L 114.369872 48.634163 
L 114.700143 49.185916 
L 115.035996 49.73767 
L 115.376617 50.289423 
L 115.721191 50.841177 
L 116.068958 51.39293 
L 116.419278 51.944684 
L 116.771685 52.496437 
L 117.125932 53.048191 
L 117.482015 53.599945 
L 117.840184 54.151698 
L 118.200919 54.703452 
L 118.56489 55.255205 
L 118.932879 55.806959 
L 119.305692 56.358712 
L 119.684044 56.910466 
L 120.068435 57.462219 
L 120.459029 58.013973 
L 120.855539 58.565727 
L 121.257135 59.11748 
L 121.662379 59.669234 
L 122.069203 60.220987 
L 122.474922 60.772741 
L 122.876299 61.324494 
L 123.269653 61.876248 
L 123.650992 62.428001 
L 124.016189 62.979755 
L 124.361158 63.531508 
L 124.682037 64.083262 
L 124.975365 64.635016 
L 125.238218 65.186769 
L 125.468331 65.738523 
L 125.664159 66.290276 
L 125.824914 66.84203 
L 125.950543 67.393783 
L 126.041677 67.945537 
L 126.099554 68.49729 
L 126.125909 69.049044 
L 126.122865 69.600798 
L 126.092812 70.152551 
L 126.0383 70.704305 
L 125.961935 71.256058 
L 125.866291 71.807812 
L 125.753841 72.359565 
L 125.626896 72.911319 
L 125.487557 73.463072 
L 125.337677 74.014826 
L 125.178821 74.56658 
L 125.012246 75.118333 
L 124.838863 75.670087 
L 124.659219 76.22184 
L 124.47348 76.773594 
L 124.281419 77.325347 
L 124.082421 77.877101 
L 123.875505 78.428854 
L 123.659358 78.980608 
L 123.432393 79.532362 
L 123.192829 80.084115 
L 122.938784 80.635869 
L 122.668381 81.187622 
L 122.379868 81.739376 
L 122.07173 82.291129 
L 121.742802 82.842883 
L 121.392364 83.394636 
L 121.020218 83.94639 
L 120.626737 84.498143 
L 120.212883 85.049897 
L 119.780199 85.601651 
L 119.330761 86.153404 
L 118.867111 86.705158 
L 118.392157 87.256911 
L 117.90907 87.808665 
L 117.421155 88.360418 
L 116.93173 88.912172 
L 116.444012 89.463925 
L 115.961011 90.015679 
L 115.485443 90.567433 
L 115.019668 91.119186 
L 114.565653 91.67094 
L 114.12495 92.222693 
L 113.698708 92.774447 
L 113.287697 93.3262 
L 112.892343 93.877954 
L 112.512783 94.429707 
L 112.148911 94.981461 
L 111.800433 95.533215 
L 111.466917 96.084968 
L 111.147827 96.636722 
L 110.842561 97.188475 
L 110.550472 97.740229 
L 110.270887 98.291982 
L 110.003114 98.843736 
L 109.746449 99.395489 
L 109.500182 99.947243 
L 109.2636 100.498997 
L 109.035996 101.05075 
L 108.816678 101.602504 
L 108.604982 102.154257 
L 108.400292 102.706011 
L 108.202052 103.257764 
L 108.009793 103.809518 
L 107.823142 104.361271 
L 107.64184 104.913025 
L 107.465751 105.464778 
L 107.294862 106.016532 
L 106.593895 107.619948 
z
" style="fill:#42a6cc;stroke:#42a6cc;stroke-linejoin:miter;"/>
   </g>
   <g id="matplotlib.axis_1">
    <g id="xtick_1">
     <g id="line2d_1">
      <defs>
       <path d="M 0 0 
L 0 3.5 
" id="mcc3a0d9b6c" style="stroke:#000000;stroke-width:0.8;"/>
      </defs>
      <g>
       <use style="stroke:#000000;stroke-width:0.8;" x="55.284495" xlink:href="#mcc3a0d9b6c" y="113.24"/>
      </g>
     </g>
     <g id="text_1">
      <!-- 6.4 -->
      <defs>
       <path d="M 33.015625 40.375 
Q 26.375 40.375 22.484375 35.828125 
Q 18.609375 31.296875 18.609375 23.390625 
Q 18.609375 15.53125 22.484375 10.953125 
Q 26.375 6.390625 33.015625 6.390625 
Q 39.65625 6.390625 43.53125 10.953125 
Q 47.40625 15.53125 47.40625 23.390625 
Q 47.40625 31.296875 43.53125 35.828125 
Q 39.65625 40.375 33.015625 40.375 
z
M 52.59375 71.296875 
L 52.59375 62.3125 
Q 48.875 64.0625 45.09375 64.984375 
Q 41.3125 65.921875 37.59375 65.921875 
Q 27.828125 65.921875 22.671875 59.328125 
Q 17.53125 52.734375 16.796875 39.40625 
Q 19.671875 43.65625 24.015625 45.921875 
Q 28.375 48.1875 33.59375 48.1875 
Q 44.578125 48.1875 50.953125 41.515625 
Q 57.328125 34.859375 57.328125 23.390625 
Q 57.328125 12.15625 50.6875 5.359375 
Q 44.046875 -1.421875 33.015625 -1.421875 
Q 20.359375 -1.421875 13.671875 8.265625 
Q 6.984375 17.96875 6.984375 36.375 
Q 6.984375 53.65625 15.1875 63.9375 
Q 23.390625 74.21875 37.203125 74.21875 
Q 40.921875 74.21875 44.703125 73.484375 
Q 48.484375 72.75 52.59375 71.296875 
z
" id="DejaVuSans-36"/>
       <path d="M 10.6875 12.40625 
L 21 12.40625 
L 21 0 
L 10.6875 0 
z
" id="DejaVuSans-2e"/>
       <path d="M 37.796875 64.3125 
L 12.890625 25.390625 
L 37.796875 25.390625 
z
M 35.203125 72.90625 
L 47.609375 72.90625 
L 47.609375 25.390625 
L 58.015625 25.390625 
L 58.015625 17.1875 
L 47.609375 17.1875 
L 47.609375 0 
L 37.796875 0 
L 37.796875 17.1875 
L 4.890625 17.1875 
L 4.890625 26.703125 
z
" id="DejaVuSans-34"/>
      </defs>
      <g transform="translate(48.923245 126.31875)scale(0.08 -0.08)">
       <use xlink:href="#DejaVuSans-36"/>
       <use x="63.623047" xlink:href="#DejaVuSans-2e"/>
       <use x="95.410156" xlink:href="#DejaVuSans-34"/>
      </g>
     </g>
    </g>
    <g id="xtick_2">
     <g id="line2d_2">
      <g>
       <use style="stroke:#000000;stroke-width:0.8;" x="105.885505" xlink:href="#mcc3a0d9b6c" y="113.24"/>
      </g>
     </g>
     <g id="text_2">
      <!-- 40.0 -->
      <defs>
       <path d="M 31.78125 66.40625 
Q 24.171875 66.40625 20.328125 58.90625 
Q 16.5 51.421875 16.5 36.375 
Q 16.5 21.390625 20.328125 13.890625 
Q 24.171875 6.390625 31.78125 6.390625 
Q 39.453125 6.390625 43.28125 13.890625 
Q 47.125 21.390625 47.125 36.375 
Q 47.125 51.421875 43.28125 58.90625 
Q 39.453125 66.40625 31.78125 66.40625 
z
M 31.78125 74.21875 
Q 44.046875 74.21875 50.515625 64.515625 
Q 56.984375 54.828125 56.984375 36.375 
Q 56.984375 17.96875 50.515625 8.265625 
Q 44.046875 -1.421875 31.78125 -1.421875 
Q 19.53125 -1.421875 13.0625 8.265625 
Q 6.59375 17.96875 6.59375 36.375 
Q 6.59375 54.828125 13.0625 64.515625 
Q 19.53125 74.21875 31.78125 74.21875 
z
" id="DejaVuSans-30"/>
      </defs>
      <g transform="translate(96.979255 126.31875)scale(0.08 -0.08)">
       <use xlink:href="#DejaVuSans-34"/>
       <use x="63.623047" xlink:href="#DejaVuSans-30"/>
       <use x="127.246094" xlink:href="#DejaVuSans-2e"/>
       <use x="159.033203" xlink:href="#DejaVuSans-30"/>
      </g>
     </g>
    </g>
   </g>
   <g id="matplotlib.axis_2">
    <g id="ytick_1">
     <g id="line2d_3">
      <defs>
       <path d="M 0 0 
L -3.5 0 
" id="mfc7bf65389" style="stroke:#000000;stroke-width:0.8;"/>
      </defs>
      <g>
       <use style="stroke:#000000;stroke-width:0.8;" x="30.49" xlink:href="#mfc7bf65389" y="109.053816"/>
      </g>
     </g>
     <g id="text_3">
      <!-- 0.0 -->
      <g transform="translate(10.7675 112.093191)scale(0.08 -0.08)">
       <use xlink:href="#DejaVuSans-30"/>
       <use x="63.623047" xlink:href="#DejaVuSans-2e"/>
       <use x="95.410156" xlink:href="#DejaVuSans-30"/>
      </g>
     </g>
    </g>
    <g id="ytick_2">
     <g id="line2d_4">
      <g>
       <use style="stroke:#000000;stroke-width:0.8;" x="30.49" xlink:href="#mfc7bf65389" y="88.994612"/>
      </g>
     </g>
     <g id="text_4">
      <!-- 0.2 -->
      <defs>
       <path d="M 19.1875 8.296875 
L 53.609375 8.296875 
L 53.609375 0 
L 7.328125 0 
L 7.328125 8.296875 
Q 12.9375 14.109375 22.625 23.890625 
Q 32.328125 33.6875 34.8125 36.53125 
Q 39.546875 41.84375 41.421875 45.53125 
Q 43.3125 49.21875 43.3125 52.78125 
Q 43.3125 58.59375 39.234375 62.25 
Q 35.15625 65.921875 28.609375 65.921875 
Q 23.96875 65.921875 18.8125 64.3125 
Q 13.671875 62.703125 7.8125 59.421875 
L 7.8125 69.390625 
Q 13.765625 71.78125 18.9375 73 
Q 24.125 74.21875 28.421875 74.21875 
Q 39.75 74.21875 46.484375 68.546875 
Q 53.21875 62.890625 53.21875 53.421875 
Q 53.21875 48.921875 51.53125 44.890625 
Q 49.859375 40.875 45.40625 35.40625 
Q 44.1875 33.984375 37.640625 27.21875 
Q 31.109375 20.453125 19.1875 8.296875 
z
" id="DejaVuSans-32"/>
      </defs>
      <g transform="translate(10.7675 92.033987)scale(0.08 -0.08)">
       <use xlink:href="#DejaVuSans-30"/>
       <use x="63.623047" xlink:href="#DejaVuSans-2e"/>
       <use x="95.410156" xlink:href="#DejaVuSans-32"/>
      </g>
     </g>
    </g>
    <g id="ytick_3">
     <g id="line2d_5">
      <g>
       <use style="stroke:#000000;stroke-width:0.8;" x="30.49" xlink:href="#mfc7bf65389" y="68.935409"/>
      </g>
     </g>
     <g id="text_5">
      <!-- 0.4 -->
      <g transform="translate(10.7675 71.974784)scale(0.08 -0.08)">
       <use xlink:href="#DejaVuSans-30"/>
       <use x="63.623047" xlink:href="#DejaVuSans-2e"/>
       <use x="95.410156" xlink:href="#DejaVuSans-34"/>
      </g>
     </g>
    </g>
    <g id="ytick_4">
     <g id="line2d_6">
      <g>
       <use style="stroke:#000000;stroke-width:0.8;" x="30.49" xlink:href="#mfc7bf65389" y="48.876206"/>
      </g>
     </g>
     <g id="text_6">
      <!-- 0.6 -->
      <g transform="translate(10.7675 51.915581)scale(0.08 -0.08)">
       <use xlink:href="#DejaVuSans-30"/>
       <use x="63.623047" xlink:href="#DejaVuSans-2e"/>
       <use x="95.410156" xlink:href="#DejaVuSans-36"/>
      </g>
     </g>
    </g>
    <g id="ytick_5">
     <g id="line2d_7">
      <g>
       <use style="stroke:#000000;stroke-width:0.8;" x="30.49" xlink:href="#mfc7bf65389" y="28.817002"/>
      </g>
     </g>
     <g id="text_7">
      <!-- 0.8 -->
      <defs>
       <path d="M 31.78125 34.625 
Q 24.75 34.625 20.71875 30.859375 
Q 16.703125 27.09375 16.703125 20.515625 
Q 16.703125 13.921875 20.71875 10.15625 
Q 24.75 6.390625 31.78125 6.390625 
Q 38.8125 6.390625 42.859375 10.171875 
Q 46.921875 13.96875 46.921875 20.515625 
Q 46.921875 27.09375 42.890625 30.859375 
Q 38.875 34.625 31.78125 34.625 
z
M 21.921875 38.8125 
Q 15.578125 40.375 12.03125 44.71875 
Q 8.5 49.078125 8.5 55.328125 
Q 8.5 64.0625 14.71875 69.140625 
Q 20.953125 74.21875 31.78125 74.21875 
Q 42.671875 74.21875 48.875 69.140625 
Q 55.078125 64.0625 55.078125 55.328125 
Q 55.078125 49.078125 51.53125 44.71875 
Q 48 40.375 41.703125 38.8125 
Q 48.828125 37.15625 52.796875 32.3125 
Q 56.78125 27.484375 56.78125 20.515625 
Q 56.78125 9.90625 50.3125 4.234375 
Q 43.84375 -1.421875 31.78125 -1.421875 
Q 19.734375 -1.421875 13.25 4.234375 
Q 6.78125 9.90625 6.78125 20.515625 
Q 6.78125 27.484375 10.78125 32.3125 
Q 14.796875 37.15625 21.921875 38.8125 
z
M 18.3125 54.390625 
Q 18.3125 48.734375 21.84375 45.5625 
Q 25.390625 42.390625 31.78125 42.390625 
Q 38.140625 42.390625 41.71875 45.5625 
Q 45.3125 48.734375 45.3125 54.390625 
Q 45.3125 60.0625 41.71875 63.234375 
Q 38.140625 66.40625 31.78125 66.40625 
Q 25.390625 66.40625 21.84375 63.234375 
Q 18.3125 60.0625 18.3125 54.390625 
z
" id="DejaVuSans-38"/>
      </defs>
      <g transform="translate(10.7675 31.856377)scale(0.08 -0.08)">
       <use xlink:href="#DejaVuSans-30"/>
       <use x="63.623047" xlink:href="#DejaVuSans-2e"/>
       <use x="95.410156" xlink:href="#DejaVuSans-38"/>
      </g>
     </g>
    </g>
   </g>
   <g id="PathCollection_1">
    <path clip-path="url(#paba6ff40d3)" d="M 41.976004 61.428186 
C 42.83536 61.428186 43.659635 61.08676 44.267291 60.479104 
C 44.874948 59.871447 45.216374 59.047172 45.216374 58.187816 
C 45.216374 57.328459 44.874948 56.504185 44.267291 55.896528 
C 43.659635 55.288871 42.83536 54.947445 41.976004 54.947445 
C 41.116647 54.947445 40.292372 55.288871 39.684716 55.896528 
C 39.077059 56.504185 38.735633 57.328459 38.735633 58.187816 
C 38.735633 59.047172 39.077059 59.871447 39.684716 60.479104 
C 40.292372 61.08676 41.116647 61.428186 41.976004 61.428186 
z
" style="fill:none;stroke:#000000;"/>
   </g>
   <g id="PathCollection_2">
    <path clip-path="url(#paba6ff40d3)" d="M 55.32004 62.747774 
C 56.179396 62.747774 57.003671 62.406348 57.611328 61.798692 
C 58.218984 61.191035 58.56041 60.36676 58.56041 59.507404 
C 58.56041 58.648047 58.218984 57.823772 57.611328 57.216116 
C 57.003671 56.608459 56.179396 56.267033 55.32004 56.267033 
C 54.460683 56.267033 53.636408 56.608459 53.028752 57.216116 
C 52.421095 57.823772 52.079669 58.648047 52.079669 59.507404 
C 52.079669 60.36676 52.421095 61.191035 53.028752 61.798692 
C 53.636408 62.406348 54.460683 62.747774 55.32004 62.747774 
z
" style="fill:none;stroke:#000000;"/>
   </g>
   <g id="PathCollection_3">
    <path clip-path="url(#paba6ff40d3)" d="M 69.333445 57.700215 
C 70.192801 57.700215 71.017076 57.358789 71.624732 56.751132 
C 72.232389 56.143475 72.573815 55.3192 72.573815 54.459844 
C 72.573815 53.600488 72.232389 52.776213 71.624732 52.168556 
C 71.017076 51.5609 70.192801 51.219474 69.333445 51.219474 
C 68.474088 51.219474 67.649813 51.5609 67.042157 52.168556 
C 66.4345 52.776213 66.093074 53.600488 66.093074 54.459844 
C 66.093074 55.3192 66.4345 56.143475 67.042157 56.751132 
C 67.649813 57.358789 68.474088 57.700215 69.333445 57.700215 
z
" style="fill:none;stroke:#000000;"/>
   </g>
   <g id="PathCollection_4">
    <path clip-path="url(#paba6ff40d3)" d="M 92.451203 73.090212 
C 93.31056 73.090212 94.134835 72.748786 94.742491 72.14113 
C 95.350148 71.533473 95.691574 70.709198 95.691574 69.849842 
C 95.691574 68.990486 95.350148 68.166211 94.742491 67.558554 
C 94.134835 66.950897 93.31056 66.609472 92.451203 66.609472 
C 91.591847 66.609472 90.767572 66.950897 90.159916 67.558554 
C 89.552259 68.166211 89.210833 68.990486 89.210833 69.849842 
C 89.210833 70.709198 89.552259 71.533473 90.159916 72.14113 
C 90.767572 72.748786 91.591847 73.090212 92.451203 73.090212 
z
" style="fill:none;stroke:#000000;"/>
   </g>
   <g id="PathCollection_5">
    <path clip-path="url(#paba6ff40d3)" d="M 108.089361 78.409223 
C 108.948718 78.409223 109.772993 78.067797 110.380649 77.460141 
C 110.988306 76.852484 111.329732 76.028209 111.329732 75.168853 
C 111.329732 74.309496 110.988306 73.485222 110.380649 72.877565 
C 109.772993 72.269908 108.948718 71.928482 108.089361 71.928482 
C 107.230005 71.928482 106.40573 72.269908 105.798074 72.877565 
C 105.190417 73.485222 104.848991 74.309496 104.848991 75.168853 
C 104.848991 76.028209 105.190417 76.852484 105.798074 77.460141 
C 106.40573 78.067797 107.230005 78.409223 108.089361 78.409223 
z
" style="fill:none;stroke:#000000;"/>
   </g>
   <g id="PathCollection_6">
    <path clip-path="url(#paba6ff40d3)" d="M 118.516697 68.105167 
C 119.376053 68.105167 120.200328 67.763741 120.807985 67.156085 
C 121.415641 66.548428 121.757067 65.724153 121.757067 64.864797 
C 121.757067 64.00544 121.415641 63.181165 120.807985 62.573509 
C 120.200328 61.965852 119.376053 61.624426 118.516697 61.624426 
C 117.65734 61.624426 116.833066 61.965852 116.225409 62.573509 
C 115.617752 63.181165 115.276326 64.00544 115.276326 64.864797 
C 115.276326 65.724153 115.617752 66.548428 116.225409 67.156085 
C 116.833066 67.763741 117.65734 68.105167 118.516697 68.105167 
z
" style="fill:none;stroke:#000000;"/>
   </g>
   <g id="line2d_8">
    <path clip-path="url(#paba6ff40d3)" d="M 55.284495 106.018703 
L 55.552432 104.749183 
L 59.468459 95.870279 
L 61.807214 91.386634 
L 66.579353 82.419343 
L 68.644655 77.935697 
L 70.171905 74.092573 
L 71.171936 70.889969 
L 72.071215 67.046844 
L 73.139458 62.563199 
L 75.217468 54.876949 
L 75.465215 52.955387 
L 75.523461 51.033825 
L 75.333864 48.471741 
L 74.807723 45.269138 
L 73.702954 40.144971 
L 73.005849 37.582888 
L 72.308281 35.661326 
L 71.368604 33.739763 
L 70.121049 31.818201 
L 68.543711 29.896639 
L 66.673528 27.975076 
L 63.179257 24.772473 
L 59.766175 21.569869 
L 59.147366 20.929348 
L 57.056147 18.972556 
L 55.451775 17.861818 
L 55.117215 17.861818 
L 53.512842 18.972556 
L 42.619712 29.256118 
L 40.937632 31.17768 
L 39.579836 33.099243 
L 38.543143 35.020805 
L 37.773873 36.942367 
L 37.024064 39.504451 
L 36.018243 43.988096 
L 35.320648 47.831221 
L 35.066715 50.393304 
L 35.063324 52.314866 
L 35.248417 54.236429 
L 35.768077 56.798512 
L 36.875975 60.641636 
L 37.922943 64.484761 
L 39.963318 72.811531 
L 41.124279 76.014135 
L 42.7786 79.85726 
L 44.953074 84.340905 
L 48.061361 90.105592 
L 51.100531 95.870279 
L 52.890589 99.713404 
L 55.016558 104.749183 
L 55.284495 106.018703 
L 55.284495 106.018703 
" style="fill:none;stroke:#000000;stroke-linecap:square;stroke-width:2;"/>
   </g>
   <g id="line2d_9">
    <path clip-path="url(#paba6ff40d3)" d="M 48.537694 57.041403 
L 62.031296 57.041403 
" style="fill:none;stroke:#000000;stroke-linecap:square;stroke-width:2;"/>
   </g>
   <g id="line2d_10">
    <path clip-path="url(#paba6ff40d3)" d="M 53.035561 54.423613 
L 57.533429 54.423613 
" style="fill:none;stroke:#000000;stroke-linecap:square;stroke-width:2;"/>
   </g>
   <g id="line2d_11">
    <path clip-path="url(#paba6ff40d3)" d="M 53.035561 59.659192 
L 57.533429 59.659192 
" style="fill:none;stroke:#000000;stroke-linecap:square;stroke-width:2;"/>
   </g>
   <g id="line2d_12">
    <path clip-path="url(#paba6ff40d3)" d="M 55.284495 59.659192 
L 55.284495 54.423613 
" style="fill:none;stroke:#000000;stroke-linecap:square;stroke-width:2;"/>
   </g>
   <g id="line2d_13">
    <path clip-path="url(#paba6ff40d3)" d="M 105.885505 108.698182 
L 106.593895 107.619948 
L 107.465751 105.464778 
L 108.604982 102.154257 
L 109.746449 99.395489 
L 111.147827 96.636722 
L 112.512783 94.429707 
L 114.12495 92.222693 
L 116.444012 89.463925 
L 120.212883 85.049897 
L 121.742802 82.842883 
L 122.938784 80.635869 
L 123.875505 78.428854 
L 125.012246 75.118333 
L 125.753841 72.359565 
L 126.092812 70.152551 
L 126.099554 68.49729 
L 125.824914 66.84203 
L 125.238218 65.186769 
L 124.361158 63.531508 
L 122.876299 61.324494 
L 118.56489 55.255205 
L 115.035996 49.73767 
L 113.117782 46.427148 
L 111.466314 43.116627 
L 109.550748 38.702599 
L 108.444148 35.943831 
L 107.081948 33.775847 
L 105.85836 27.027465 
L 104.689062 33.775847 
L 103.326862 35.943831 
L 101.288659 40.909613 
L 99.511217 44.771888 
L 97.725075 48.082409 
L 95.351732 51.944684 
L 91.702575 57.462219 
L 87.088973 64.083262 
L 86.302679 65.738523 
L 85.820467 67.393783 
L 85.645101 69.049044 
L 85.73271 70.704305 
L 86.144114 72.911319 
L 86.932148 75.670087 
L 88.111652 78.980608 
L 89.102629 81.187622 
L 90.378646 83.394636 
L 91.990811 85.601651 
L 94.349855 88.360418 
L 97.64606 92.222693 
L 99.258227 94.429707 
L 100.623183 96.636722 
L 102.024561 99.395489 
L 103.166028 102.154257 
L 104.305259 105.464778 
L 104.476148 106.016532 
L 105.177115 107.619948 
L 105.885505 108.698182 
L 105.885505 108.698182 
" style="fill:none;stroke:#000000;stroke-linecap:square;stroke-width:2;"/>
   </g>
   <g id="line2d_14">
    <path clip-path="url(#paba6ff40d3)" d="M 99.138704 68.094533 
L 112.632306 68.094533 
" style="fill:none;stroke:#000000;stroke-linecap:square;stroke-width:2;"/>
   </g>
   <g id="line2d_15">
    <path clip-path="url(#paba6ff40d3)" d="M 103.636571 62.941603 
L 108.134439 62.941603 
" style="fill:none;stroke:#000000;stroke-linecap:square;stroke-width:2;"/>
   </g>
   <g id="line2d_16">
    <path clip-path="url(#paba6ff40d3)" d="M 103.636571 73.247463 
L 108.134439 73.247463 
" style="fill:none;stroke:#000000;stroke-linecap:square;stroke-width:2;"/>
   </g>
   <g id="line2d_17">
    <path clip-path="url(#paba6ff40d3)" d="M 105.885505 73.247463 
L 105.885505 62.941603 
" style="fill:none;stroke:#000000;stroke-linecap:square;stroke-width:2;"/>
   </g>
   <g id="patch_9">
    <path d="M 30.49 113.24 
L 30.49 13.32 
" style="fill:none;stroke:#000000;stroke-linecap:square;stroke-linejoin:miter;stroke-width:0.8;"/>
   </g>
   <g id="patch_10">
    <path d="M 130.68 113.24 
L 130.68 13.32 
" style="fill:none;stroke:#000000;stroke-linecap:square;stroke-linejoin:miter;stroke-width:0.8;"/>
   </g>
   <g id="patch_11">
    <path d="M 30.49 113.24 
L 130.68 113.24 
" style="fill:none;stroke:#000000;stroke-linecap:square;stroke-linejoin:miter;stroke-width:0.8;"/>
   </g>
   <g id="patch_12">
    <path d="M 30.49 13.32 
L 130.68 13.32 
" style="fill:none;stroke:#000000;stroke-linecap:square;stroke-linejoin:miter;stroke-width:0.8;"/>
   </g>
  </g>
 </g>
 <defs>
  <clipPath id="paba6ff40d3">
   <rect height="99.92" width="100.19" x="30.49" y="13.32"/>
  </clipPath>
 </defs>
</svg>
