<?xml version="1.0" encoding="utf-8" standalone="no"?>
<!DOCTYPE svg PUBLIC "-//W3C//DTD SVG 1.1//EN"
  "http://www.w3.org/Graphics/SVG/1.1/DTD/svg11.dtd">
<!-- Created with matplotlib (http://matplotlib.org/) -->
<svg height="140.64pt" version="1.1" viewBox="0 0 144 140.64" width="144pt" xmlns="http://www.w3.org/2000/svg" xmlns:xlink="http://www.w3.org/1999/xlink">
 <defs>
  <style type="text/css">
*{stroke-linecap:butt;stroke-linejoin:round;}
  </style>
 </defs>
 <g id="figure_1">
  <g id="patch_1">
   <path d="M 0 140.64 
L 144 140.64 
L 144 0 
L 0 0 
z
" style="fill:#ffffff;"/>
  </g>
  <g id="axes_1">
   <g id="patch_2">
    <path d="M 43.304 115.118215 
L 132.36 115.118215 
L 132.36 11.550294 
L 43.304 11.550294 
z
" style="fill:#ffffff;"/>
   </g>
   <g id="patch_3">
    <path clip-path="url(#pc5a05ee434)" d="M 65.343111 106.147814 
L 61.69809 105.795053 
L 61.509918 105.622131 
L 60.998258 105.096449 
L 60.487662 104.570766 
L 59.984548 104.045084 
L 59.495346 103.519401 
L 59.026274 102.993718 
L 58.583131 102.468036 
L 58.171087 101.942353 
L 57.794496 101.41667 
L 57.77555 101.388742 
L 57.456742 100.890988 
L 57.16012 100.365305 
L 56.905765 99.839622 
L 56.69363 99.31394 
L 56.522518 98.788257 
L 56.390159 98.262574 
L 56.293327 97.736892 
L 56.228001 97.211209 
L 56.189543 96.685526 
L 56.172895 96.159844 
L 56.172773 95.634161 
L 56.183862 95.108479 
L 56.200989 94.582796 
L 56.219274 94.057113 
L 56.23425 93.531431 
L 56.241951 93.005748 
L 56.238959 92.480065 
L 56.222425 91.954383 
L 56.190046 91.4287 
L 56.14002 90.903017 
L 56.070977 90.377335 
L 55.981896 89.851652 
L 55.872013 89.325969 
L 55.740747 88.800287 
L 55.587635 88.274604 
L 55.412296 87.748922 
L 55.214431 87.223239 
L 54.993858 86.697556 
L 54.750584 86.171874 
L 54.484902 85.646191 
L 54.197509 85.120508 
L 53.88962 84.594826 
L 53.563064 84.069143 
L 53.220352 83.54346 
L 52.864687 83.017778 
L 52.499919 82.492095 
L 52.130435 81.966412 
L 51.760983 81.44073 
L 51.396456 80.915047 
L 51.04163 80.389364 
L 50.700906 79.863682 
L 50.378054 79.337999 
L 50.075999 78.812317 
L 49.796674 78.286634 
L 49.54093 77.760951 
L 49.30855 77.235269 
L 49.098327 76.709586 
L 48.908234 76.183903 
L 48.735646 75.658221 
L 48.577616 75.132538 
L 48.431161 74.606855 
L 48.293557 74.081173 
L 48.162603 73.55549 
L 48.036843 73.029807 
L 47.915731 72.504125 
L 47.79972 71.978442 
L 47.690283 71.45276 
L 47.589853 70.927077 
L 47.501703 70.401394 
L 47.429753 69.875712 
L 47.378349 69.350029 
L 47.352 68.824346 
L 47.35511 68.298664 
L 47.391718 67.772981 
L 47.465259 67.247298 
L 47.578366 66.721616 
L 47.732721 66.195933 
L 47.92897 65.67025 
L 48.16669 65.144568 
L 48.44443 64.618885 
L 48.759794 64.093202 
L 49.109569 63.56752 
L 49.489892 63.041837 
L 49.896412 62.516155 
L 50.32447 61.990472 
L 50.769242 61.464789 
L 51.225877 60.939107 
L 51.68959 60.413424 
L 52.155738 59.887741 
L 52.619861 59.362059 
L 53.077726 58.836376 
L 53.525353 58.310693 
L 53.959062 57.785011 
L 54.375525 57.259328 
L 54.771844 56.733645 
L 55.145637 56.207963 
L 55.495137 55.68228 
L 55.819279 55.156598 
L 56.117775 54.630915 
L 56.391153 54.105232 
L 56.640756 53.57955 
L 56.868699 53.053867 
L 57.07777 52.528184 
L 57.271299 52.002502 
L 57.452992 51.476819 
L 57.626749 50.951136 
L 57.796477 50.425454 
L 57.965914 49.899771 
L 58.138483 49.374088 
L 58.31717 48.848406 
L 58.504446 48.322723 
L 58.70223 47.797041 
L 58.911885 47.271358 
L 59.13426 46.745675 
L 59.369742 46.219993 
L 59.618337 45.69431 
L 59.879753 45.168627 
L 60.153476 44.642945 
L 60.438837 44.117262 
L 60.735053 43.591579 
L 61.041247 43.065897 
L 61.356442 42.540214 
L 61.679531 42.014531 
L 62.009239 41.488849 
L 62.344072 40.963166 
L 62.682283 40.437483 
L 63.021845 39.911801 
L 63.20787 39.62343 
L 63.292207 39.514395 
L 64.701444 39.386118 
L 64.701444 39.386118 
L 66.043729 39.514395 
L 66.018697 39.62343 
L 65.990271 39.911801 
L 65.940173 40.437483 
L 65.893252 40.963166 
L 65.850644 41.488849 
L 65.813419 42.014531 
L 65.782484 42.540214 
L 65.758489 43.065897 
L 65.741747 43.591579 
L 65.732173 44.117262 
L 65.72926 44.642945 
L 65.732087 45.168627 
L 65.739366 45.69431 
L 65.749524 46.219993 
L 65.76081 46.745675 
L 65.771422 47.271358 
L 65.779648 47.797041 
L 65.783988 48.322723 
L 65.783282 48.848406 
L 65.776797 49.374088 
L 65.764287 49.899771 
L 65.746018 50.425454 
L 65.722745 50.951136 
L 65.695651 51.476819 
L 65.666249 52.002502 
L 65.636256 52.528184 
L 65.607444 53.053867 
L 65.581491 53.57955 
L 65.559839 54.105232 
L 65.543571 54.630915 
L 65.533326 55.156598 
L 65.529253 55.68228 
L 65.531008 56.207963 
L 65.537786 56.733645 
L 65.548399 57.259328 
L 65.561357 57.785011 
L 65.574971 58.310693 
L 65.587449 58.836376 
L 65.596977 59.362059 
L 65.601783 59.887741 
L 65.600187 60.413424 
L 65.590623 60.939107 
L 65.571667 61.464789 
L 65.542047 61.990472 
L 65.500672 62.516155 
L 65.44666 63.041837 
L 65.379382 63.56752 
L 65.298513 64.093202 
L 65.204094 64.618885 
L 65.096578 65.144568 
L 64.976875 65.67025 
L 64.846373 66.195933 
L 64.706927 66.721616 
L 64.560828 67.247298 
L 64.410727 67.772981 
L 64.259538 68.298664 
L 64.110307 68.824346 
L 63.966071 69.350029 
L 63.829699 69.875712 
L 63.703738 70.401394 
L 63.590268 70.927077 
L 63.49077 71.45276 
L 63.406037 71.978442 
L 63.336104 72.504125 
L 63.280231 73.029807 
L 63.236928 73.55549 
L 63.204022 74.081173 
L 63.178769 74.606855 
L 63.158 75.132538 
L 63.138302 75.658221 
L 63.116203 76.183903 
L 63.088373 76.709586 
L 63.051811 77.235269 
L 63.003995 77.760951 
L 62.943016 78.286634 
L 62.867642 78.812317 
L 62.777343 79.337999 
L 62.672259 79.863682 
L 62.553108 80.389364 
L 62.421068 80.915047 
L 62.277619 81.44073 
L 62.124378 81.966412 
L 61.962946 82.492095 
L 61.794765 83.017778 
L 61.621022 83.54346 
L 61.442589 84.069143 
L 61.260014 84.594826 
L 61.073559 85.120508 
L 60.883265 85.646191 
L 60.689054 86.171874 
L 60.490834 86.697556 
L 60.28861 87.223239 
L 60.082574 87.748922 
L 59.87317 88.274604 
L 59.661142 88.800287 
L 59.447541 89.325969 
L 59.233712 89.851652 
L 59.021256 90.377335 
L 58.811987 90.903017 
L 58.607875 91.4287 
L 58.410997 91.954383 
L 58.223497 92.480065 
L 58.047549 93.005748 
L 57.885336 93.531431 
L 57.73904 94.057113 
L 57.610835 94.582796 
L 57.502883 95.108479 
L 57.41733 95.634161 
L 57.356299 96.159844 
L 57.321865 96.685526 
L 57.316033 97.211209 
L 57.340694 97.736892 
L 57.397574 98.262574 
L 57.48817 98.788257 
L 57.613677 99.31394 
L 57.774912 99.839622 
L 57.972231 100.365305 
L 58.205454 100.890988 
L 58.458676 101.388742 
L 58.473795 101.41667 
L 58.775813 101.942353 
L 59.109379 102.468036 
L 59.471669 102.993718 
L 59.859193 103.519401 
L 60.267853 104.045084 
L 60.693031 104.570766 
L 61.129715 105.096449 
L 61.572635 105.622131 
L 61.69809 105.795053 
z
" style="fill:#66c2a5;stroke:#66c2a5;stroke-linejoin:miter;"/>
   </g>
   <g id="patch_4">
    <path clip-path="url(#pc5a05ee434)" d="M 65.343111 106.147814 
L 61.69809 105.795053 
L 61.572635 105.622131 
L 61.129715 105.096449 
L 60.693031 104.570766 
L 60.267853 104.045084 
L 59.859193 103.519401 
L 59.471669 102.993718 
L 59.109379 102.468036 
L 58.775813 101.942353 
L 58.473795 101.41667 
L 58.458676 101.388742 
L 58.205454 100.890988 
L 57.972231 100.365305 
L 57.774912 99.839622 
L 57.613677 99.31394 
L 57.48817 98.788257 
L 57.397574 98.262574 
L 57.340694 97.736892 
L 57.316033 97.211209 
L 57.321865 96.685526 
L 57.356299 96.159844 
L 57.41733 95.634161 
L 57.502883 95.108479 
L 57.610835 94.582796 
L 57.73904 94.057113 
L 57.885336 93.531431 
L 58.047549 93.005748 
L 58.223497 92.480065 
L 58.410997 91.954383 
L 58.607875 91.4287 
L 58.811987 90.903017 
L 59.021256 90.377335 
L 59.233712 89.851652 
L 59.447541 89.325969 
L 59.661142 88.800287 
L 59.87317 88.274604 
L 60.082574 87.748922 
L 60.28861 87.223239 
L 60.490834 86.697556 
L 60.689054 86.171874 
L 60.883265 85.646191 
L 61.073559 85.120508 
L 61.260014 84.594826 
L 61.442589 84.069143 
L 61.621022 83.54346 
L 61.794765 83.017778 
L 61.962946 82.492095 
L 62.124378 81.966412 
L 62.277619 81.44073 
L 62.421068 80.915047 
L 62.553108 80.389364 
L 62.672259 79.863682 
L 62.777343 79.337999 
L 62.867642 78.812317 
L 62.943016 78.286634 
L 63.003995 77.760951 
L 63.051811 77.235269 
L 63.088373 76.709586 
L 63.116203 76.183903 
L 63.138302 75.658221 
L 63.158 75.132538 
L 63.178769 74.606855 
L 63.204022 74.081173 
L 63.236928 73.55549 
L 63.280231 73.029807 
L 63.336104 72.504125 
L 63.406037 71.978442 
L 63.49077 71.45276 
L 63.590268 70.927077 
L 63.703738 70.401394 
L 63.829699 69.875712 
L 63.966071 69.350029 
L 64.110307 68.824346 
L 64.259538 68.298664 
L 64.410727 67.772981 
L 64.560828 67.247298 
L 64.706927 66.721616 
L 64.846373 66.195933 
L 64.976875 65.67025 
L 65.096578 65.144568 
L 65.204094 64.618885 
L 65.298513 64.093202 
L 65.379382 63.56752 
L 65.44666 63.041837 
L 65.500672 62.516155 
L 65.542047 61.990472 
L 65.571667 61.464789 
L 65.590623 60.939107 
L 65.600187 60.413424 
L 65.601783 59.887741 
L 65.596977 59.362059 
L 65.587449 58.836376 
L 65.574971 58.310693 
L 65.561357 57.785011 
L 65.548399 57.259328 
L 65.537786 56.733645 
L 65.531008 56.207963 
L 65.529253 55.68228 
L 65.533326 55.156598 
L 65.543571 54.630915 
L 65.559839 54.105232 
L 65.581491 53.57955 
L 65.607444 53.053867 
L 65.636256 52.528184 
L 65.666249 52.002502 
L 65.695651 51.476819 
L 65.722745 50.951136 
L 65.746018 50.425454 
L 65.764287 49.899771 
L 65.776797 49.374088 
L 65.783282 48.848406 
L 65.783988 48.322723 
L 65.779648 47.797041 
L 65.771422 47.271358 
L 65.76081 46.745675 
L 65.749524 46.219993 
L 65.739366 45.69431 
L 65.732087 45.168627 
L 65.72926 44.642945 
L 65.732173 44.117262 
L 65.741747 43.591579 
L 65.758489 43.065897 
L 65.782484 42.540214 
L 65.813419 42.014531 
L 65.850644 41.488849 
L 65.893252 40.963166 
L 65.940173 40.437483 
L 65.990271 39.911801 
L 66.018697 39.62343 
L 66.043729 39.514395 
L 64.701444 39.386118 
L 64.701444 39.386118 
L 66.043729 39.514395 
L 66.071082 39.62343 
L 66.106235 39.911801 
L 66.171242 40.437483 
L 66.237497 40.963166 
L 66.305212 41.488849 
L 66.374725 42.014531 
L 66.446443 42.540214 
L 66.520774 43.065897 
L 66.598048 43.591579 
L 66.678464 44.117262 
L 66.762039 44.642945 
L 66.848582 45.168627 
L 66.937698 45.69431 
L 67.028813 46.219993 
L 67.121222 46.745675 
L 67.21416 47.271358 
L 67.306876 47.797041 
L 67.398723 48.322723 
L 67.489237 48.848406 
L 67.578211 49.374088 
L 67.665744 49.899771 
L 67.75228 50.425454 
L 67.838605 50.951136 
L 67.925828 51.476819 
L 68.015317 52.002502 
L 68.108629 52.528184 
L 68.2074 53.053867 
L 68.313235 53.57955 
L 68.427594 54.105232 
L 68.551685 54.630915 
L 68.686379 55.156598 
L 68.832144 55.68228 
L 68.989017 56.207963 
L 69.156592 56.733645 
L 69.33405 57.259328 
L 69.520187 57.785011 
L 69.713474 58.310693 
L 69.912098 58.836376 
L 70.114019 59.362059 
L 70.317011 59.887741 
L 70.518705 60.413424 
L 70.716621 60.939107 
L 70.908219 61.464789 
L 71.090942 61.990472 
L 71.262286 62.516155 
L 71.419874 63.041837 
L 71.561545 63.56752 
L 71.685452 64.093202 
L 71.790155 64.618885 
L 71.874699 65.144568 
L 71.938684 65.67025 
L 71.982289 66.195933 
L 72.006278 66.721616 
L 72.011956 67.247298 
L 72.001096 67.772981 
L 71.975832 68.298664 
L 71.938527 68.824346 
L 71.891623 69.350029 
L 71.837488 69.875712 
L 71.778262 70.401394 
L 71.715725 70.927077 
L 71.651177 71.45276 
L 71.585366 71.978442 
L 71.518433 72.504125 
L 71.449922 73.029807 
L 71.378813 73.55549 
L 71.303613 74.081173 
L 71.222482 74.606855 
L 71.133389 75.132538 
L 71.034295 75.658221 
L 70.92335 76.183903 
L 70.799082 76.709586 
L 70.660578 77.235269 
L 70.507622 77.760951 
L 70.340799 78.286634 
L 70.161541 78.812317 
L 69.972108 79.337999 
L 69.775516 79.863682 
L 69.575401 80.389364 
L 69.375844 80.915047 
L 69.181162 81.44073 
L 68.995687 81.966412 
L 68.823558 82.492095 
L 68.668533 83.017778 
L 68.533844 83.54346 
L 68.422108 84.069143 
L 68.335289 84.594826 
L 68.274711 85.120508 
L 68.241124 85.646191 
L 68.234791 86.171874 
L 68.255594 86.697556 
L 68.303143 87.223239 
L 68.37686 87.748922 
L 68.476039 88.274604 
L 68.59987 88.800287 
L 68.747428 89.325969 
L 68.917622 89.851652 
L 69.109126 90.377335 
L 69.320289 90.903017 
L 69.549045 91.4287 
L 69.792832 91.954383 
L 70.048528 92.480065 
L 70.312423 93.005748 
L 70.580221 93.531431 
L 70.847084 94.057113 
L 71.107715 94.582796 
L 71.356478 95.108479 
L 71.58755 95.634161 
L 71.795101 96.159844 
L 71.973488 96.685526 
L 72.117466 97.211209 
L 72.222388 97.736892 
L 72.284396 98.262574 
L 72.300594 98.788257 
L 72.269179 99.31394 
L 72.189534 99.839622 
L 72.062272 100.365305 
L 71.889229 100.890988 
L 71.685879 101.388742 
L 71.673398 101.41667 
L 71.418818 101.942353 
L 71.130419 102.468036 
L 70.813828 102.993718 
L 70.475151 103.519401 
L 70.120752 104.045084 
L 69.757019 104.570766 
L 69.390154 105.096449 
L 69.025982 105.622131 
L 68.886999 105.795053 
z
" style="fill:#fc8d62;stroke:#fc8d62;stroke-linejoin:miter;"/>
   </g>
   <g id="patch_5">
    <path clip-path="url(#pc5a05ee434)" d="M 65.343111 106.147814 
L 68.886999 105.795053 
L 69.025982 105.622131 
L 69.390154 105.096449 
L 69.757019 104.570766 
L 70.120752 104.045084 
L 70.475151 103.519401 
L 70.813828 102.993718 
L 71.130419 102.468036 
L 71.418818 101.942353 
L 71.673398 101.41667 
L 71.685879 101.388742 
L 71.889229 100.890988 
L 72.062272 100.365305 
L 72.189534 99.839622 
L 72.269179 99.31394 
L 72.300594 98.788257 
L 72.284396 98.262574 
L 72.222388 97.736892 
L 72.117466 97.211209 
L 71.973488 96.685526 
L 71.795101 96.159844 
L 71.58755 95.634161 
L 71.356478 95.108479 
L 71.107715 94.582796 
L 70.847084 94.057113 
L 70.580221 93.531431 
L 70.312423 93.005748 
L 70.048528 92.480065 
L 69.792832 91.954383 
L 69.549045 91.4287 
L 69.320289 90.903017 
L 69.109126 90.377335 
L 68.917622 89.851652 
L 68.747428 89.325969 
L 68.59987 88.800287 
L 68.476039 88.274604 
L 68.37686 87.748922 
L 68.303143 87.223239 
L 68.255594 86.697556 
L 68.234791 86.171874 
L 68.241124 85.646191 
L 68.274711 85.120508 
L 68.335289 84.594826 
L 68.422108 84.069143 
L 68.533844 83.54346 
L 68.668533 83.017778 
L 68.823558 82.492095 
L 68.995687 81.966412 
L 69.181162 81.44073 
L 69.375844 80.915047 
L 69.575401 80.389364 
L 69.775516 79.863682 
L 69.972108 79.337999 
L 70.161541 78.812317 
L 70.340799 78.286634 
L 70.507622 77.760951 
L 70.660578 77.235269 
L 70.799082 76.709586 
L 70.92335 76.183903 
L 71.034295 75.658221 
L 71.133389 75.132538 
L 71.222482 74.606855 
L 71.303613 74.081173 
L 71.378813 73.55549 
L 71.449922 73.029807 
L 71.518433 72.504125 
L 71.585366 71.978442 
L 71.651177 71.45276 
L 71.715725 70.927077 
L 71.778262 70.401394 
L 71.837488 69.875712 
L 71.891623 69.350029 
L 71.938527 68.824346 
L 71.975832 68.298664 
L 72.001096 67.772981 
L 72.011956 67.247298 
L 72.006278 66.721616 
L 71.982289 66.195933 
L 71.938684 65.67025 
L 71.874699 65.144568 
L 71.790155 64.618885 
L 71.685452 64.093202 
L 71.561545 63.56752 
L 71.419874 63.041837 
L 71.262286 62.516155 
L 71.090942 61.990472 
L 70.908219 61.464789 
L 70.716621 60.939107 
L 70.518705 60.413424 
L 70.317011 59.887741 
L 70.114019 59.362059 
L 69.912098 58.836376 
L 69.713474 58.310693 
L 69.520187 57.785011 
L 69.33405 57.259328 
L 69.156592 56.733645 
L 68.989017 56.207963 
L 68.832144 55.68228 
L 68.686379 55.156598 
L 68.551685 54.630915 
L 68.427594 54.105232 
L 68.313235 53.57955 
L 68.2074 53.053867 
L 68.108629 52.528184 
L 68.015317 52.002502 
L 67.925828 51.476819 
L 67.838605 50.951136 
L 67.75228 50.425454 
L 67.665744 49.899771 
L 67.578211 49.374088 
L 67.489237 48.848406 
L 67.398723 48.322723 
L 67.306876 47.797041 
L 67.21416 47.271358 
L 67.121222 46.745675 
L 67.028813 46.219993 
L 66.937698 45.69431 
L 66.848582 45.168627 
L 66.762039 44.642945 
L 66.678464 44.117262 
L 66.598048 43.591579 
L 66.520774 43.065897 
L 66.446443 42.540214 
L 66.374725 42.014531 
L 66.305212 41.488849 
L 66.237497 40.963166 
L 66.171242 40.437483 
L 66.106235 39.911801 
L 66.071082 39.62343 
L 66.043729 39.514395 
L 64.701444 39.386118 
L 65.984778 39.386118 
L 67.394015 39.514395 
L 67.478352 39.62343 
L 67.664377 39.911801 
L 68.003939 40.437483 
L 68.34215 40.963166 
L 68.676984 41.488849 
L 69.006691 42.014531 
L 69.32978 42.540214 
L 69.644975 43.065897 
L 69.951169 43.591579 
L 70.247385 44.117262 
L 70.532746 44.642945 
L 70.80647 45.168627 
L 71.067885 45.69431 
L 71.31648 46.219993 
L 71.551962 46.745675 
L 71.774337 47.271358 
L 71.983993 47.797041 
L 72.181776 48.322723 
L 72.369052 48.848406 
L 72.547739 49.374088 
L 72.720308 49.899771 
L 72.889746 50.425454 
L 73.059473 50.951136 
L 73.23323 51.476819 
L 73.414923 52.002502 
L 73.608452 52.528184 
L 73.817523 53.053867 
L 74.045466 53.57955 
L 74.295069 54.105232 
L 74.568447 54.630915 
L 74.866943 55.156598 
L 75.191085 55.68228 
L 75.540585 56.207963 
L 75.914378 56.733645 
L 76.310697 57.259328 
L 76.72716 57.785011 
L 77.160869 58.310693 
L 77.608496 58.836376 
L 78.066361 59.362059 
L 78.530485 59.887741 
L 78.996632 60.413424 
L 79.460345 60.939107 
L 79.91698 61.464789 
L 80.361753 61.990472 
L 80.78981 62.516155 
L 81.196331 63.041837 
L 81.576653 63.56752 
L 81.926429 64.093202 
L 82.241792 64.618885 
L 82.519532 65.144568 
L 82.757253 65.67025 
L 82.953501 66.195933 
L 83.107856 66.721616 
L 83.220963 67.247298 
L 83.294504 67.772981 
L 83.331112 68.298664 
L 83.334222 68.824346 
L 83.307873 69.350029 
L 83.256469 69.875712 
L 83.184519 70.401394 
L 83.096369 70.927077 
L 82.99594 71.45276 
L 82.886502 71.978442 
L 82.770491 72.504125 
L 82.649379 73.029807 
L 82.523619 73.55549 
L 82.392665 74.081173 
L 82.255061 74.606855 
L 82.108606 75.132538 
L 81.950576 75.658221 
L 81.777989 76.183903 
L 81.587895 76.709586 
L 81.377672 77.235269 
L 81.145292 77.760951 
L 80.889549 78.286634 
L 80.610223 78.812317 
L 80.308169 79.337999 
L 79.985316 79.863682 
L 79.644592 80.389364 
L 79.289766 80.915047 
L 78.925239 81.44073 
L 78.555788 81.966412 
L 78.186303 82.492095 
L 77.821536 83.017778 
L 77.465871 83.54346 
L 77.123158 84.069143 
L 76.796602 84.594826 
L 76.488713 85.120508 
L 76.20132 85.646191 
L 75.935639 86.171874 
L 75.692364 86.697556 
L 75.471791 87.223239 
L 75.273926 87.748922 
L 75.098587 88.274604 
L 74.945475 88.800287 
L 74.81421 89.325969 
L 74.704327 89.851652 
L 74.615245 90.377335 
L 74.546202 90.903017 
L 74.496176 91.4287 
L 74.463797 91.954383 
L 74.447263 92.480065 
L 74.444271 93.005748 
L 74.451972 93.531431 
L 74.466948 94.057113 
L 74.485233 94.582796 
L 74.502361 95.108479 
L 74.513449 95.634161 
L 74.513327 96.159844 
L 74.496679 96.685526 
L 74.458221 97.211209 
L 74.392896 97.736892 
L 74.296064 98.262574 
L 74.163704 98.788257 
L 73.992592 99.31394 
L 73.780458 99.839622 
L 73.526102 100.365305 
L 73.22948 100.890988 
L 72.910672 101.388742 
L 72.891726 101.41667 
L 72.515135 101.942353 
L 72.103091 102.468036 
L 71.659948 102.993718 
L 71.190876 103.519401 
L 70.701674 104.045084 
L 70.198561 104.570766 
L 69.687964 105.096449 
L 69.176304 105.622131 
L 68.988132 105.795053 
z
" style="fill:#8da0cb;stroke:#8da0cb;stroke-linejoin:miter;"/>
   </g>
   <g id="patch_6">
    <path clip-path="url(#pc5a05ee434)" d="M 110.320889 111.496959 
L 109.636731 110.926683 
L 109.314987 110.356406 
L 108.961028 109.78613 
L 108.553159 109.215853 
L 108.086818 108.645577 
L 107.557971 108.0753 
L 106.963538 107.505024 
L 106.301921 106.934747 
L 105.573604 106.364471 
L 105.074929 106.000296 
L 104.781729 105.794194 
L 104.445608 105.564154 
L 103.932504 105.223918 
L 103.035344 104.653641 
L 102.102616 104.083365 
L 101.148997 103.513088 
L 100.190497 102.942811 
L 99.243328 102.372535 
L 98.322802 101.802258 
L 97.442474 101.231982 
L 96.613645 100.661705 
L 95.84527 100.091429 
L 95.144168 99.521152 
L 94.515417 98.950876 
L 93.962753 98.380599 
L 93.488857 97.810323 
L 93.095486 97.240046 
L 92.783482 96.66977 
L 92.55273 96.099493 
L 92.402151 95.529217 
L 92.329778 94.95894 
L 92.332894 94.388664 
L 92.408189 93.818387 
L 92.551843 93.24811 
L 92.75949 92.677834 
L 93.026039 92.107557 
L 93.345419 91.537281 
L 93.710324 90.967004 
L 94.1121 90.396728 
L 94.540844 89.826451 
L 94.985785 89.256175 
L 95.435882 88.685898 
L 95.880557 88.115622 
L 96.310388 87.545345 
L 96.717614 86.975069 
L 97.096345 86.404792 
L 97.442453 85.834516 
L 97.753216 85.264239 
L 98.026865 84.693962 
L 98.262188 84.123686 
L 98.458339 83.553409 
L 98.614912 82.983133 
L 98.732258 82.412856 
L 98.811945 81.84258 
L 98.857213 81.272303 
L 98.873281 80.702027 
L 98.867398 80.13175 
L 98.848558 79.561474 
L 98.826921 78.991197 
L 98.812975 78.420921 
L 98.816569 77.850644 
L 98.845953 77.280368 
L 98.906962 76.710091 
L 99.002455 76.139814 
L 99.132105 75.569538 
L 99.292544 74.999261 
L 99.477847 74.428985 
L 99.680265 73.858708 
L 99.891107 73.288432 
L 100.101657 72.718155 
L 100.304012 72.147879 
L 100.491775 71.577602 
L 100.660532 71.007326 
L 100.808112 70.437049 
L 100.934595 69.866773 
L 101.042106 69.296496 
L 101.134396 68.72622 
L 101.216269 68.155943 
L 101.292919 67.585666 
L 101.369265 67.01539 
L 101.449377 66.445113 
L 101.536074 65.874837 
L 101.630759 65.30456 
L 101.733492 64.734284 
L 101.843274 64.164007 
L 101.958447 63.593731 
L 102.077149 63.023454 
L 102.19771 62.453178 
L 102.318955 61.882901 
L 102.440366 61.312625 
L 102.562127 60.742348 
L 102.68506 60.172072 
L 102.810489 59.601795 
L 102.940047 59.031518 
L 103.075461 58.461242 
L 103.218311 57.890965 
L 103.369802 57.320689 
L 103.530561 56.750412 
L 103.700495 56.180136 
L 103.87874 55.609859 
L 104.063723 55.039583 
L 104.253334 54.469306 
L 104.445196 53.89903 
L 104.636983 53.328753 
L 104.826722 52.758477 
L 105.013038 52.1882 
L 105.19527 51.617924 
L 105.373455 51.047647 
L 105.548187 50.477371 
L 105.720377 49.907094 
L 105.890995 49.336817 
L 106.060838 48.766541 
L 106.197245 48.307774 
L 106.230384 48.196264 
L 106.399755 47.625988 
L 106.568786 47.055711 
L 106.73717 46.485435 
L 106.904635 45.915158 
L 107.071095 45.344882 
L 107.236752 44.774605 
L 107.402115 44.204329 
L 107.567945 43.634052 
L 107.735139 43.063776 
L 107.904577 42.493499 
L 108.076975 41.923223 
L 108.25275 41.352946 
L 108.431931 40.782669 
L 108.614111 40.212393 
L 108.798448 39.642116 
L 108.873674 39.411774 
L 109.182945 39.07184 
L 109.182945 39.07184 
L 109.36424 39.411774 
L 109.351599 39.642116 
L 109.322139 40.212393 
L 109.293577 40.782669 
L 109.265383 41.352946 
L 109.23672 41.923223 
L 109.206486 42.493499 
L 109.173399 43.063776 
L 109.136108 43.634052 
L 109.093347 44.204329 
L 109.044087 44.774605 
L 108.987684 45.344882 
L 108.923975 45.915158 
L 108.853306 46.485435 
L 108.77648 47.055711 
L 108.694614 47.625988 
L 108.60894 48.196264 
L 108.591842 48.307774 
L 108.520576 48.766541 
L 108.430335 49.336817 
L 108.338613 49.907094 
L 108.245376 50.477371 
L 108.150282 51.047647 
L 108.052877 51.617924 
L 107.952849 52.1882 
L 107.850258 52.758477 
L 107.745689 53.328753 
L 107.640288 53.89903 
L 107.535673 54.469306 
L 107.43373 55.039583 
L 107.336351 55.609859 
L 107.245161 56.180136 
L 107.161295 56.750412 
L 107.085262 57.320689 
L 107.016919 57.890965 
L 106.955543 58.461242 
L 106.899987 59.031518 
L 106.848881 59.601795 
L 106.800851 60.172072 
L 106.754737 60.742348 
L 106.709775 61.312625 
L 106.665755 61.882901 
L 106.623109 62.453178 
L 106.582939 63.023454 
L 106.546925 63.593731 
L 106.517128 64.164007 
L 106.49566 64.734284 
L 106.484261 65.30456 
L 106.483846 65.874837 
L 106.494094 66.445113 
L 106.513179 67.01539 
L 106.53772 67.585666 
L 106.562976 68.155943 
L 106.583282 68.72622 
L 106.592657 69.296496 
L 106.585521 69.866773 
L 106.557389 70.437049 
L 106.505489 71.007326 
L 106.429199 71.577602 
L 106.330289 72.147879 
L 106.212921 72.718155 
L 106.083399 73.288432 
L 105.949689 73.858708 
L 105.820714 74.428985 
L 105.705507 74.999261 
L 105.612272 75.569538 
L 105.547485 76.139814 
L 105.51514 76.710091 
L 105.516248 77.280368 
L 105.54868 77.850644 
L 105.607369 78.420921 
L 105.684857 78.991197 
L 105.772108 79.561474 
L 105.859467 80.13175 
L 105.93761 80.702027 
L 105.998369 81.272303 
L 106.035298 81.84258 
L 106.043917 82.412856 
L 106.021632 82.983133 
L 105.967381 83.553409 
L 105.881127 84.123686 
L 105.763347 84.693962 
L 105.614666 85.264239 
L 105.435739 85.834516 
L 105.227409 86.404792 
L 104.991083 86.975069 
L 104.729189 87.545345 
L 104.445547 88.115622 
L 104.14552 88.685898 
L 103.835859 89.256175 
L 103.524269 89.826451 
L 103.218797 90.396728 
L 102.927189 90.967004 
L 102.656373 91.537281 
L 102.412165 92.107557 
L 102.19924 92.677834 
L 102.021303 93.24811 
L 101.881388 93.818387 
L 101.782144 94.388664 
L 101.726023 94.95894 
L 101.715325 95.529217 
L 101.7521 96.099493 
L 101.837989 96.66977 
L 101.97406 97.240046 
L 102.160731 97.810323 
L 102.397762 98.380599 
L 102.684293 98.950876 
L 103.018843 99.521152 
L 103.399181 100.091429 
L 103.822051 100.661705 
L 104.282775 101.231982 
L 104.77487 101.802258 
L 105.289825 102.372535 
L 105.817185 102.942811 
L 106.345012 103.513088 
L 106.860704 104.083365 
L 107.35203 104.653641 
L 107.808196 105.223918 
L 108.059998 105.564154 
L 108.220731 105.794194 
L 108.357912 106.000296 
L 108.58404 106.364471 
L 108.895559 106.934747 
L 109.155531 107.505024 
L 109.366499 108.0753 
L 109.532666 108.645577 
L 109.659235 109.215853 
L 109.751839 109.78613 
L 109.8161 110.356406 
L 109.874238 110.926683 
z
" style="fill:#66c2a5;stroke:#66c2a5;stroke-linejoin:miter;"/>
   </g>
   <g id="patch_7">
    <path clip-path="url(#pc5a05ee434)" d="M 110.320889 111.496959 
L 109.874238 110.926683 
L 109.8161 110.356406 
L 109.751839 109.78613 
L 109.659235 109.215853 
L 109.532666 108.645577 
L 109.366499 108.0753 
L 109.155531 107.505024 
L 108.895559 106.934747 
L 108.58404 106.364471 
L 108.357912 106.000296 
L 108.220731 105.794194 
L 108.059998 105.564154 
L 107.808196 105.223918 
L 107.35203 104.653641 
L 106.860704 104.083365 
L 106.345012 103.513088 
L 105.817185 102.942811 
L 105.289825 102.372535 
L 104.77487 101.802258 
L 104.282775 101.231982 
L 103.822051 100.661705 
L 103.399181 100.091429 
L 103.018843 99.521152 
L 102.684293 98.950876 
L 102.397762 98.380599 
L 102.160731 97.810323 
L 101.97406 97.240046 
L 101.837989 96.66977 
L 101.7521 96.099493 
L 101.715325 95.529217 
L 101.726023 94.95894 
L 101.782144 94.388664 
L 101.881388 93.818387 
L 102.021303 93.24811 
L 102.19924 92.677834 
L 102.412165 92.107557 
L 102.656373 91.537281 
L 102.927189 90.967004 
L 103.218797 90.396728 
L 103.524269 89.826451 
L 103.835859 89.256175 
L 104.14552 88.685898 
L 104.445547 88.115622 
L 104.729189 87.545345 
L 104.991083 86.975069 
L 105.227409 86.404792 
L 105.435739 85.834516 
L 105.614666 85.264239 
L 105.763347 84.693962 
L 105.881127 84.123686 
L 105.967381 83.553409 
L 106.021632 82.983133 
L 106.043917 82.412856 
L 106.035298 81.84258 
L 105.998369 81.272303 
L 105.93761 80.702027 
L 105.859467 80.13175 
L 105.772108 79.561474 
L 105.684857 78.991197 
L 105.607369 78.420921 
L 105.54868 77.850644 
L 105.516248 77.280368 
L 105.51514 76.710091 
L 105.547485 76.139814 
L 105.612272 75.569538 
L 105.705507 74.999261 
L 105.820714 74.428985 
L 105.949689 73.858708 
L 106.083399 73.288432 
L 106.212921 72.718155 
L 106.330289 72.147879 
L 106.429199 71.577602 
L 106.505489 71.007326 
L 106.557389 70.437049 
L 106.585521 69.866773 
L 106.592657 69.296496 
L 106.583282 68.72622 
L 106.562976 68.155943 
L 106.53772 67.585666 
L 106.513179 67.01539 
L 106.494094 66.445113 
L 106.483846 65.874837 
L 106.484261 65.30456 
L 106.49566 64.734284 
L 106.517128 64.164007 
L 106.546925 63.593731 
L 106.582939 63.023454 
L 106.623109 62.453178 
L 106.665755 61.882901 
L 106.709775 61.312625 
L 106.754737 60.742348 
L 106.800851 60.172072 
L 106.848881 59.601795 
L 106.899987 59.031518 
L 106.955543 58.461242 
L 107.016919 57.890965 
L 107.085262 57.320689 
L 107.161295 56.750412 
L 107.245161 56.180136 
L 107.336351 55.609859 
L 107.43373 55.039583 
L 107.535673 54.469306 
L 107.640288 53.89903 
L 107.745689 53.328753 
L 107.850258 52.758477 
L 107.952849 52.1882 
L 108.052877 51.617924 
L 108.150282 51.047647 
L 108.245376 50.477371 
L 108.338613 49.907094 
L 108.430335 49.336817 
L 108.520576 48.766541 
L 108.591842 48.307774 
L 108.60894 48.196264 
L 108.694614 47.625988 
L 108.77648 47.055711 
L 108.853306 46.485435 
L 108.923975 45.915158 
L 108.987684 45.344882 
L 109.044087 44.774605 
L 109.093347 44.204329 
L 109.136108 43.634052 
L 109.173399 43.063776 
L 109.206486 42.493499 
L 109.23672 41.923223 
L 109.265383 41.352946 
L 109.293577 40.782669 
L 109.322139 40.212393 
L 109.351599 39.642116 
L 109.36424 39.411774 
L 109.182945 39.07184 
L 109.182945 39.07184 
L 109.36424 39.411774 
L 109.353201 39.642116 
L 109.326398 40.212393 
L 109.302083 40.782669 
L 109.280423 41.352946 
L 109.26143 41.923223 
L 109.244958 42.493499 
L 109.230686 43.063776 
L 109.218086 43.634052 
L 109.206383 44.204329 
L 109.194506 44.774605 
L 109.181056 45.344882 
L 109.164313 45.915158 
L 109.142294 46.485435 
L 109.112886 47.055711 
L 109.074044 47.625988 
L 109.024036 48.196264 
L 109.01284 48.307774 
L 108.96169 48.766541 
L 108.886594 49.336817 
L 108.799211 49.907094 
L 108.700855 50.477371 
L 108.593553 51.047647 
L 108.479786 51.617924 
L 108.36219 52.1882 
L 108.243254 52.758477 
L 108.1251 53.328753 
L 108.009371 53.89903 
L 107.897256 54.469306 
L 107.789625 55.039583 
L 107.68724 55.609859 
L 107.590987 56.180136 
L 107.502065 56.750412 
L 107.422104 57.320689 
L 107.353175 57.890965 
L 107.297708 58.461242 
L 107.258325 59.031518 
L 107.237615 59.601795 
L 107.237893 60.172072 
L 107.26094 60.742348 
L 107.307768 61.312625 
L 107.378415 61.882901 
L 107.471781 62.453178 
L 107.585565 63.023454 
L 107.716296 63.593731 
L 107.859526 64.164007 
L 108.010163 64.734284 
L 108.162947 65.30456 
L 108.312999 65.874837 
L 108.456369 66.445113 
L 108.590477 67.01539 
L 108.714386 67.585666 
L 108.828838 68.155943 
L 108.936064 68.72622 
L 109.039397 69.296496 
L 109.142777 69.866773 
L 109.250191 70.437049 
L 109.365164 71.007326 
L 109.490324 71.577602 
L 109.627101 72.147879 
L 109.775582 72.718155 
L 109.934536 73.288432 
L 110.101624 73.858708 
L 110.273783 74.428985 
L 110.447745 74.999261 
L 110.620654 75.569538 
L 110.79067 76.139814 
L 110.957497 76.710091 
L 111.1227 77.280368 
L 111.289781 77.850644 
L 111.463956 78.420921 
L 111.651665 78.991197 
L 111.859882 79.561474 
L 112.095339 80.13175 
L 112.363771 80.702027 
L 112.669332 81.272303 
L 113.01425 81.84258 
L 113.398803 82.412856 
L 113.821586 82.983133 
L 114.280025 83.553409 
L 114.770987 84.123686 
L 115.29136 84.693962 
L 115.838424 85.264239 
L 116.409938 85.834516 
L 117.003903 86.404792 
L 117.618074 86.975069 
L 118.249368 87.545345 
L 118.893347 88.115622 
L 119.543934 88.685898 
L 120.193447 89.256175 
L 120.832945 89.826451 
L 121.452799 90.396728 
L 122.043333 90.967004 
L 122.59539 91.537281 
L 123.100708 92.107557 
L 123.552075 92.677834 
L 123.943277 93.24811 
L 124.268945 93.818387 
L 124.524386 94.388664 
L 124.705492 94.95894 
L 124.808761 95.529217 
L 124.831422 96.099493 
L 124.771591 96.66977 
L 124.628387 97.240046 
L 124.401965 97.810323 
L 124.093448 98.380599 
L 123.70482 98.950876 
L 123.238875 99.521152 
L 122.699302 100.091429 
L 122.090943 100.661705 
L 121.42019 101.231982 
L 120.695382 101.802258 
L 119.927061 102.372535 
L 119.127919 102.942811 
L 118.312357 103.513088 
L 117.495681 104.083365 
L 116.69306 104.653641 
L 115.918433 105.223918 
L 115.474574 105.564154 
L 115.183569 105.794194 
L 114.929599 106.000296 
L 114.497446 106.364471 
L 113.866009 106.934747 
L 113.292304 107.505024 
L 112.776887 108.0753 
L 112.318376 108.645577 
L 111.91403 109.215853 
L 111.560265 109.78613 
L 111.253042 110.356406 
L 111.005046 110.926683 
z
" style="fill:#fc8d62;stroke:#fc8d62;stroke-linejoin:miter;"/>
   </g>
   <g id="patch_8">
    <path clip-path="url(#pc5a05ee434)" d="M 110.320889 111.496959 
L 111.005046 110.926683 
L 111.253042 110.356406 
L 111.560265 109.78613 
L 111.91403 109.215853 
L 112.318376 108.645577 
L 112.776887 108.0753 
L 113.292304 107.505024 
L 113.866009 106.934747 
L 114.497446 106.364471 
L 114.929599 106.000296 
L 115.183569 105.794194 
L 115.474574 105.564154 
L 115.918433 105.223918 
L 116.69306 104.653641 
L 117.495681 104.083365 
L 118.312357 103.513088 
L 119.127919 102.942811 
L 119.927061 102.372535 
L 120.695382 101.802258 
L 121.42019 101.231982 
L 122.090943 100.661705 
L 122.699302 100.091429 
L 123.238875 99.521152 
L 123.70482 98.950876 
L 124.093448 98.380599 
L 124.401965 97.810323 
L 124.628387 97.240046 
L 124.771591 96.66977 
L 124.831422 96.099493 
L 124.808761 95.529217 
L 124.705492 94.95894 
L 124.524386 94.388664 
L 124.268945 93.818387 
L 123.943277 93.24811 
L 123.552075 92.677834 
L 123.100708 92.107557 
L 122.59539 91.537281 
L 122.043333 90.967004 
L 121.452799 90.396728 
L 120.832945 89.826451 
L 120.193447 89.256175 
L 119.543934 88.685898 
L 118.893347 88.115622 
L 118.249368 87.545345 
L 117.618074 86.975069 
L 117.003903 86.404792 
L 116.409938 85.834516 
L 115.838424 85.264239 
L 115.29136 84.693962 
L 114.770987 84.123686 
L 114.280025 83.553409 
L 113.821586 82.983133 
L 113.398803 82.412856 
L 113.01425 81.84258 
L 112.669332 81.272303 
L 112.363771 80.702027 
L 112.095339 80.13175 
L 111.859882 79.561474 
L 111.651665 78.991197 
L 111.463956 78.420921 
L 111.289781 77.850644 
L 111.1227 77.280368 
L 110.957497 76.710091 
L 110.79067 76.139814 
L 110.620654 75.569538 
L 110.447745 74.999261 
L 110.273783 74.428985 
L 110.101624 73.858708 
L 109.934536 73.288432 
L 109.775582 72.718155 
L 109.627101 72.147879 
L 109.490324 71.577602 
L 109.365164 71.007326 
L 109.250191 70.437049 
L 109.142777 69.866773 
L 109.039397 69.296496 
L 108.936064 68.72622 
L 108.828838 68.155943 
L 108.714386 67.585666 
L 108.590477 67.01539 
L 108.456369 66.445113 
L 108.312999 65.874837 
L 108.162947 65.30456 
L 108.010163 64.734284 
L 107.859526 64.164007 
L 107.716296 63.593731 
L 107.585565 63.023454 
L 107.471781 62.453178 
L 107.378415 61.882901 
L 107.307768 61.312625 
L 107.26094 60.742348 
L 107.237893 60.172072 
L 107.237615 59.601795 
L 107.258325 59.031518 
L 107.297708 58.461242 
L 107.353175 57.890965 
L 107.422104 57.320689 
L 107.502065 56.750412 
L 107.590987 56.180136 
L 107.68724 55.609859 
L 107.789625 55.039583 
L 107.897256 54.469306 
L 108.009371 53.89903 
L 108.1251 53.328753 
L 108.243254 52.758477 
L 108.36219 52.1882 
L 108.479786 51.617924 
L 108.593553 51.047647 
L 108.700855 50.477371 
L 108.799211 49.907094 
L 108.886594 49.336817 
L 108.96169 48.766541 
L 109.01284 48.307774 
L 109.024036 48.196264 
L 109.074044 47.625988 
L 109.112886 47.055711 
L 109.142294 46.485435 
L 109.164313 45.915158 
L 109.181056 45.344882 
L 109.194506 44.774605 
L 109.206383 44.204329 
L 109.218086 43.634052 
L 109.230686 43.063776 
L 109.244958 42.493499 
L 109.26143 41.923223 
L 109.280423 41.352946 
L 109.302083 40.782669 
L 109.326398 40.212393 
L 109.353201 39.642116 
L 109.36424 39.411774 
L 109.182945 39.07184 
L 111.458833 39.07184 
L 111.768104 39.411774 
L 111.84333 39.642116 
L 112.027667 40.212393 
L 112.209847 40.782669 
L 112.389028 41.352946 
L 112.564803 41.923223 
L 112.737201 42.493499 
L 112.906639 43.063776 
L 113.073832 43.634052 
L 113.239663 44.204329 
L 113.405026 44.774605 
L 113.570683 45.344882 
L 113.737143 45.915158 
L 113.904607 46.485435 
L 114.072992 47.055711 
L 114.242023 47.625988 
L 114.411393 48.196264 
L 114.444533 48.307774 
L 114.580939 48.766541 
L 114.750783 49.336817 
L 114.921401 49.907094 
L 115.093591 50.477371 
L 115.268322 51.047647 
L 115.446508 51.617924 
L 115.62874 52.1882 
L 115.815056 52.758477 
L 116.004795 53.328753 
L 116.196582 53.89903 
L 116.388444 54.469306 
L 116.578055 55.039583 
L 116.763037 55.609859 
L 116.941283 56.180136 
L 117.111217 56.750412 
L 117.271976 57.320689 
L 117.423467 57.890965 
L 117.566317 58.461242 
L 117.701731 59.031518 
L 117.831289 59.601795 
L 117.956718 60.172072 
L 118.079651 60.742348 
L 118.201412 61.312625 
L 118.322823 61.882901 
L 118.444068 62.453178 
L 118.564629 63.023454 
L 118.683331 63.593731 
L 118.798504 64.164007 
L 118.908285 64.734284 
L 119.011019 65.30456 
L 119.105704 65.874837 
L 119.1924 66.445113 
L 119.272513 67.01539 
L 119.348859 67.585666 
L 119.425509 68.155943 
L 119.507382 68.72622 
L 119.599671 69.296496 
L 119.707183 69.866773 
L 119.833666 70.437049 
L 119.981246 71.007326 
L 120.150003 71.577602 
L 120.337765 72.147879 
L 120.540121 72.718155 
L 120.750671 73.288432 
L 120.961513 73.858708 
L 121.163931 74.428985 
L 121.349234 74.999261 
L 121.509673 75.569538 
L 121.639323 76.139814 
L 121.734816 76.710091 
L 121.795825 77.280368 
L 121.825209 77.850644 
L 121.828803 78.420921 
L 121.814857 78.991197 
L 121.79322 79.561474 
L 121.77438 80.13175 
L 121.768496 80.702027 
L 121.784565 81.272303 
L 121.829833 81.84258 
L 121.90952 82.412856 
L 122.026866 82.983133 
L 122.183439 83.553409 
L 122.379589 84.123686 
L 122.614912 84.693962 
L 122.888562 85.264239 
L 123.199325 85.834516 
L 123.545433 86.404792 
L 123.924164 86.975069 
L 124.33139 87.545345 
L 124.761221 88.115622 
L 125.205896 88.685898 
L 125.655993 89.256175 
L 126.100934 89.826451 
L 126.529678 90.396728 
L 126.931453 90.967004 
L 127.296359 91.537281 
L 127.615738 92.107557 
L 127.882288 92.677834 
L 128.089935 93.24811 
L 128.233589 93.818387 
L 128.308884 94.388664 
L 128.312 94.95894 
L 128.239627 95.529217 
L 128.089048 96.099493 
L 127.858296 96.66977 
L 127.546292 97.240046 
L 127.152921 97.810323 
L 126.679024 98.380599 
L 126.126361 98.950876 
L 125.49761 99.521152 
L 124.796508 100.091429 
L 124.028132 100.661705 
L 123.199304 101.231982 
L 122.318976 101.802258 
L 121.39845 102.372535 
L 120.451281 102.942811 
L 119.492781 103.513088 
L 118.539161 104.083365 
L 117.606434 104.653641 
L 116.709274 105.223918 
L 116.19617 105.564154 
L 115.860049 105.794194 
L 115.566848 106.000296 
L 115.068173 106.364471 
L 114.339857 106.934747 
L 113.67824 107.505024 
L 113.083806 108.0753 
L 112.55496 108.645577 
L 112.088619 109.215853 
L 111.68075 109.78613 
L 111.326791 110.356406 
L 111.005046 110.926683 
z
" style="fill:#8da0cb;stroke:#8da0cb;stroke-linejoin:miter;"/>
   </g>
   <g id="matplotlib.axis_1">
    <g id="xtick_1">
     <g id="line2d_1">
      <defs>
       <path d="M 0 0 
L 0 3.5 
" id="mc794531621" style="stroke:#000000;stroke-width:0.8;"/>
      </defs>
      <g>
       <use style="stroke:#000000;stroke-width:0.8;" x="65.343111" xlink:href="#mc794531621" y="115.118215"/>
      </g>
     </g>
     <g id="text_1">
      <!-- Control -->
      <defs>
       <path d="M 64.40625 67.28125 
L 64.40625 56.890625 
Q 59.421875 61.53125 53.78125 63.8125 
Q 48.140625 66.109375 41.796875 66.109375 
Q 29.296875 66.109375 22.65625 58.46875 
Q 16.015625 50.828125 16.015625 36.375 
Q 16.015625 21.96875 22.65625 14.328125 
Q 29.296875 6.6875 41.796875 6.6875 
Q 48.140625 6.6875 53.78125 8.984375 
Q 59.421875 11.28125 64.40625 15.921875 
L 64.40625 5.609375 
Q 59.234375 2.09375 53.4375 0.328125 
Q 47.65625 -1.421875 41.21875 -1.421875 
Q 24.65625 -1.421875 15.125 8.703125 
Q 5.609375 18.84375 5.609375 36.375 
Q 5.609375 53.953125 15.125 64.078125 
Q 24.65625 74.21875 41.21875 74.21875 
Q 47.75 74.21875 53.53125 72.484375 
Q 59.328125 70.75 64.40625 67.28125 
z
" id="DejaVuSans-43"/>
       <path d="M 30.609375 48.390625 
Q 23.390625 48.390625 19.1875 42.75 
Q 14.984375 37.109375 14.984375 27.296875 
Q 14.984375 17.484375 19.15625 11.84375 
Q 23.34375 6.203125 30.609375 6.203125 
Q 37.796875 6.203125 41.984375 11.859375 
Q 46.1875 17.53125 46.1875 27.296875 
Q 46.1875 37.015625 41.984375 42.703125 
Q 37.796875 48.390625 30.609375 48.390625 
z
M 30.609375 56 
Q 42.328125 56 49.015625 48.375 
Q 55.71875 40.765625 55.71875 27.296875 
Q 55.71875 13.875 49.015625 6.21875 
Q 42.328125 -1.421875 30.609375 -1.421875 
Q 18.84375 -1.421875 12.171875 6.21875 
Q 5.515625 13.875 5.515625 27.296875 
Q 5.515625 40.765625 12.171875 48.375 
Q 18.84375 56 30.609375 56 
z
" id="DejaVuSans-6f"/>
       <path d="M 54.890625 33.015625 
L 54.890625 0 
L 45.90625 0 
L 45.90625 32.71875 
Q 45.90625 40.484375 42.875 44.328125 
Q 39.84375 48.1875 33.796875 48.1875 
Q 26.515625 48.1875 22.3125 43.546875 
Q 18.109375 38.921875 18.109375 30.90625 
L 18.109375 0 
L 9.078125 0 
L 9.078125 54.6875 
L 18.109375 54.6875 
L 18.109375 46.1875 
Q 21.34375 51.125 25.703125 53.5625 
Q 30.078125 56 35.796875 56 
Q 45.21875 56 50.046875 50.171875 
Q 54.890625 44.34375 54.890625 33.015625 
z
" id="DejaVuSans-6e"/>
       <path d="M 18.3125 70.21875 
L 18.3125 54.6875 
L 36.8125 54.6875 
L 36.8125 47.703125 
L 18.3125 47.703125 
L 18.3125 18.015625 
Q 18.3125 11.328125 20.140625 9.421875 
Q 21.96875 7.515625 27.59375 7.515625 
L 36.8125 7.515625 
L 36.8125 0 
L 27.59375 0 
Q 17.1875 0 13.234375 3.875 
Q 9.28125 7.765625 9.28125 18.015625 
L 9.28125 47.703125 
L 2.6875 47.703125 
L 2.6875 54.6875 
L 9.28125 54.6875 
L 9.28125 70.21875 
z
" id="DejaVuSans-74"/>
       <path d="M 41.109375 46.296875 
Q 39.59375 47.171875 37.8125 47.578125 
Q 36.03125 48 33.890625 48 
Q 26.265625 48 22.1875 43.046875 
Q 18.109375 38.09375 18.109375 28.8125 
L 18.109375 0 
L 9.078125 0 
L 9.078125 54.6875 
L 18.109375 54.6875 
L 18.109375 46.1875 
Q 20.953125 51.171875 25.484375 53.578125 
Q 30.03125 56 36.53125 56 
Q 37.453125 56 38.578125 55.875 
Q 39.703125 55.765625 41.0625 55.515625 
z
" id="DejaVuSans-72"/>
       <path d="M 9.421875 75.984375 
L 18.40625 75.984375 
L 18.40625 0 
L 9.421875 0 
z
" id="DejaVuSans-6c"/>
      </defs>
      <g transform="translate(50.797486 128.196965)scale(0.08 -0.08)">
       <use xlink:href="#DejaVuSans-43"/>
       <use x="69.824219" xlink:href="#DejaVuSans-6f"/>
       <use x="131.005859" xlink:href="#DejaVuSans-6e"/>
       <use x="194.384766" xlink:href="#DejaVuSans-74"/>
       <use x="233.59375" xlink:href="#DejaVuSans-72"/>
       <use x="274.675781" xlink:href="#DejaVuSans-6f"/>
       <use x="335.857422" xlink:href="#DejaVuSans-6c"/>
      </g>
     </g>
    </g>
    <g id="xtick_2">
     <g id="line2d_2">
      <g>
       <use style="stroke:#000000;stroke-width:0.8;" x="110.320889" xlink:href="#mc794531621" y="115.118215"/>
      </g>
     </g>
     <g id="text_2">
      <!-- Drug -->
      <defs>
       <path d="M 19.671875 64.796875 
L 19.671875 8.109375 
L 31.59375 8.109375 
Q 46.6875 8.109375 53.6875 14.9375 
Q 60.6875 21.78125 60.6875 36.53125 
Q 60.6875 51.171875 53.6875 57.984375 
Q 46.6875 64.796875 31.59375 64.796875 
z
M 9.8125 72.90625 
L 30.078125 72.90625 
Q 51.265625 72.90625 61.171875 64.09375 
Q 71.09375 55.28125 71.09375 36.53125 
Q 71.09375 17.671875 61.125 8.828125 
Q 51.171875 0 30.078125 0 
L 9.8125 0 
z
" id="DejaVuSans-44"/>
       <path d="M 8.5 21.578125 
L 8.5 54.6875 
L 17.484375 54.6875 
L 17.484375 21.921875 
Q 17.484375 14.15625 20.5 10.265625 
Q 23.53125 6.390625 29.59375 6.390625 
Q 36.859375 6.390625 41.078125 11.03125 
Q 45.3125 15.671875 45.3125 23.6875 
L 45.3125 54.6875 
L 54.296875 54.6875 
L 54.296875 0 
L 45.3125 0 
L 45.3125 8.40625 
Q 42.046875 3.421875 37.71875 1 
Q 33.40625 -1.421875 27.6875 -1.421875 
Q 18.265625 -1.421875 13.375 4.4375 
Q 8.5 10.296875 8.5 21.578125 
z
M 31.109375 56 
z
" id="DejaVuSans-75"/>
       <path d="M 45.40625 27.984375 
Q 45.40625 37.75 41.375 43.109375 
Q 37.359375 48.484375 30.078125 48.484375 
Q 22.859375 48.484375 18.828125 43.109375 
Q 14.796875 37.75 14.796875 27.984375 
Q 14.796875 18.265625 18.828125 12.890625 
Q 22.859375 7.515625 30.078125 7.515625 
Q 37.359375 7.515625 41.375 12.890625 
Q 45.40625 18.265625 45.40625 27.984375 
z
M 54.390625 6.78125 
Q 54.390625 -7.171875 48.1875 -13.984375 
Q 42 -20.796875 29.203125 -20.796875 
Q 24.46875 -20.796875 20.265625 -20.09375 
Q 16.0625 -19.390625 12.109375 -17.921875 
L 12.109375 -9.1875 
Q 16.0625 -11.328125 19.921875 -12.34375 
Q 23.78125 -13.375 27.78125 -13.375 
Q 36.625 -13.375 41.015625 -8.765625 
Q 45.40625 -4.15625 45.40625 5.171875 
L 45.40625 9.625 
Q 42.625 4.78125 38.28125 2.390625 
Q 33.9375 0 27.875 0 
Q 17.828125 0 11.671875 7.65625 
Q 5.515625 15.328125 5.515625 27.984375 
Q 5.515625 40.671875 11.671875 48.328125 
Q 17.828125 56 27.875 56 
Q 33.9375 56 38.28125 53.609375 
Q 42.625 51.21875 45.40625 46.390625 
L 45.40625 54.6875 
L 54.390625 54.6875 
z
" id="DejaVuSans-67"/>
      </defs>
      <g transform="translate(100.522139 128.196965)scale(0.08 -0.08)">
       <use xlink:href="#DejaVuSans-44"/>
       <use x="77.001953" xlink:href="#DejaVuSans-72"/>
       <use x="118.115234" xlink:href="#DejaVuSans-75"/>
       <use x="181.494141" xlink:href="#DejaVuSans-67"/>
      </g>
     </g>
    </g>
   </g>
   <g id="matplotlib.axis_2">
    <g id="ytick_1">
     <g id="line2d_3">
      <defs>
       <path d="M 0 0 
L -3.5 0 
" id="mc938947dcf" style="stroke:#000000;stroke-width:0.8;"/>
      </defs>
      <g>
       <use style="stroke:#000000;stroke-width:0.8;" x="43.304" xlink:href="#mc938947dcf" y="112.741245"/>
      </g>
     </g>
     <g id="text_3">
      <!-- 0 -->
      <defs>
       <path d="M 31.78125 66.40625 
Q 24.171875 66.40625 20.328125 58.90625 
Q 16.5 51.421875 16.5 36.375 
Q 16.5 21.390625 20.328125 13.890625 
Q 24.171875 6.390625 31.78125 6.390625 
Q 39.453125 6.390625 43.28125 13.890625 
Q 47.125 21.390625 47.125 36.375 
Q 47.125 51.421875 43.28125 58.90625 
Q 39.453125 66.40625 31.78125 66.40625 
z
M 31.78125 74.21875 
Q 44.046875 74.21875 50.515625 64.515625 
Q 56.984375 54.828125 56.984375 36.375 
Q 56.984375 17.96875 50.515625 8.265625 
Q 44.046875 -1.421875 31.78125 -1.421875 
Q 19.53125 -1.421875 13.0625 8.265625 
Q 6.59375 17.96875 6.59375 36.375 
Q 6.59375 54.828125 13.0625 64.515625 
Q 19.53125 74.21875 31.78125 74.21875 
z
" id="DejaVuSans-30"/>
      </defs>
      <g transform="translate(31.214 115.78062)scale(0.08 -0.08)">
       <use xlink:href="#DejaVuSans-30"/>
      </g>
     </g>
    </g>
    <g id="ytick_2">
     <g id="line2d_4">
      <g>
       <use style="stroke:#000000;stroke-width:0.8;" x="43.304" xlink:href="#mc938947dcf" y="85.944207"/>
      </g>
     </g>
     <g id="text_4">
      <!-- 20 -->
      <defs>
       <path d="M 19.1875 8.296875 
L 53.609375 8.296875 
L 53.609375 0 
L 7.328125 0 
L 7.328125 8.296875 
Q 12.9375 14.109375 22.625 23.890625 
Q 32.328125 33.6875 34.8125 36.53125 
Q 39.546875 41.84375 41.421875 45.53125 
Q 43.3125 49.21875 43.3125 52.78125 
Q 43.3125 58.59375 39.234375 62.25 
Q 35.15625 65.921875 28.609375 65.921875 
Q 23.96875 65.921875 18.8125 64.3125 
Q 13.671875 62.703125 7.8125 59.421875 
L 7.8125 69.390625 
Q 13.765625 71.78125 18.9375 73 
Q 24.125 74.21875 28.421875 74.21875 
Q 39.75 74.21875 46.484375 68.546875 
Q 53.21875 62.890625 53.21875 53.421875 
Q 53.21875 48.921875 51.53125 44.890625 
Q 49.859375 40.875 45.40625 35.40625 
Q 44.1875 33.984375 37.640625 27.21875 
Q 31.109375 20.453125 19.1875 8.296875 
z
" id="DejaVuSans-32"/>
      </defs>
      <g transform="translate(26.124 88.983582)scale(0.08 -0.08)">
       <use xlink:href="#DejaVuSans-32"/>
       <use x="63.623047" xlink:href="#DejaVuSans-30"/>
      </g>
     </g>
    </g>
    <g id="ytick_3">
     <g id="line2d_5">
      <g>
       <use style="stroke:#000000;stroke-width:0.8;" x="43.304" xlink:href="#mc938947dcf" y="59.147169"/>
      </g>
     </g>
     <g id="text_5">
      <!-- 40 -->
      <defs>
       <path d="M 37.796875 64.3125 
L 12.890625 25.390625 
L 37.796875 25.390625 
z
M 35.203125 72.90625 
L 47.609375 72.90625 
L 47.609375 25.390625 
L 58.015625 25.390625 
L 58.015625 17.1875 
L 47.609375 17.1875 
L 47.609375 0 
L 37.796875 0 
L 37.796875 17.1875 
L 4.890625 17.1875 
L 4.890625 26.703125 
z
" id="DejaVuSans-34"/>
      </defs>
      <g transform="translate(26.124 62.186544)scale(0.08 -0.08)">
       <use xlink:href="#DejaVuSans-34"/>
       <use x="63.623047" xlink:href="#DejaVuSans-30"/>
      </g>
     </g>
    </g>
    <g id="ytick_4">
     <g id="line2d_6">
      <g>
       <use style="stroke:#000000;stroke-width:0.8;" x="43.304" xlink:href="#mc938947dcf" y="32.350131"/>
      </g>
     </g>
     <g id="text_6">
      <!-- 60 -->
      <defs>
       <path d="M 33.015625 40.375 
Q 26.375 40.375 22.484375 35.828125 
Q 18.609375 31.296875 18.609375 23.390625 
Q 18.609375 15.53125 22.484375 10.953125 
Q 26.375 6.390625 33.015625 6.390625 
Q 39.65625 6.390625 43.53125 10.953125 
Q 47.40625 15.53125 47.40625 23.390625 
Q 47.40625 31.296875 43.53125 35.828125 
Q 39.65625 40.375 33.015625 40.375 
z
M 52.59375 71.296875 
L 52.59375 62.3125 
Q 48.875 64.0625 45.09375 64.984375 
Q 41.3125 65.921875 37.59375 65.921875 
Q 27.828125 65.921875 22.671875 59.328125 
Q 17.53125 52.734375 16.796875 39.40625 
Q 19.671875 43.65625 24.015625 45.921875 
Q 28.375 48.1875 33.59375 48.1875 
Q 44.578125 48.1875 50.953125 41.515625 
Q 57.328125 34.859375 57.328125 23.390625 
Q 57.328125 12.15625 50.6875 5.359375 
Q 44.046875 -1.421875 33.015625 -1.421875 
Q 20.359375 -1.421875 13.671875 8.265625 
Q 6.984375 17.96875 6.984375 36.375 
Q 6.984375 53.65625 15.1875 63.9375 
Q 23.390625 74.21875 37.203125 74.21875 
Q 40.921875 74.21875 44.703125 73.484375 
Q 48.484375 72.75 52.59375 71.296875 
z
" id="DejaVuSans-36"/>
      </defs>
      <g transform="translate(26.124 35.389506)scale(0.08 -0.08)">
       <use xlink:href="#DejaVuSans-36"/>
       <use x="63.623047" xlink:href="#DejaVuSans-30"/>
      </g>
     </g>
    </g>
    <g id="text_7">
     <!-- Spreading area ($\mu$$m^2$) -->
     <defs>
      <path d="M 53.515625 70.515625 
L 53.515625 60.890625 
Q 47.90625 63.578125 42.921875 64.890625 
Q 37.9375 66.21875 33.296875 66.21875 
Q 25.25 66.21875 20.875 63.09375 
Q 16.5 59.96875 16.5 54.203125 
Q 16.5 49.359375 19.40625 46.890625 
Q 22.3125 44.4375 30.421875 42.921875 
L 36.375 41.703125 
Q 47.40625 39.59375 52.65625 34.296875 
Q 57.90625 29 57.90625 20.125 
Q 57.90625 9.515625 50.796875 4.046875 
Q 43.703125 -1.421875 29.984375 -1.421875 
Q 24.8125 -1.421875 18.96875 -0.25 
Q 13.140625 0.921875 6.890625 3.21875 
L 6.890625 13.375 
Q 12.890625 10.015625 18.65625 8.296875 
Q 24.421875 6.59375 29.984375 6.59375 
Q 38.421875 6.59375 43.015625 9.90625 
Q 47.609375 13.234375 47.609375 19.390625 
Q 47.609375 24.75 44.3125 27.78125 
Q 41.015625 30.8125 33.5 32.328125 
L 27.484375 33.5 
Q 16.453125 35.6875 11.515625 40.375 
Q 6.59375 45.0625 6.59375 53.421875 
Q 6.59375 63.09375 13.40625 68.65625 
Q 20.21875 74.21875 32.171875 74.21875 
Q 37.3125 74.21875 42.625 73.28125 
Q 47.953125 72.359375 53.515625 70.515625 
z
" id="DejaVuSans-53"/>
      <path d="M 18.109375 8.203125 
L 18.109375 -20.796875 
L 9.078125 -20.796875 
L 9.078125 54.6875 
L 18.109375 54.6875 
L 18.109375 46.390625 
Q 20.953125 51.265625 25.265625 53.625 
Q 29.59375 56 35.59375 56 
Q 45.5625 56 51.78125 48.09375 
Q 58.015625 40.1875 58.015625 27.296875 
Q 58.015625 14.40625 51.78125 6.484375 
Q 45.5625 -1.421875 35.59375 -1.421875 
Q 29.59375 -1.421875 25.265625 0.953125 
Q 20.953125 3.328125 18.109375 8.203125 
z
M 48.6875 27.296875 
Q 48.6875 37.203125 44.609375 42.84375 
Q 40.53125 48.484375 33.40625 48.484375 
Q 26.265625 48.484375 22.1875 42.84375 
Q 18.109375 37.203125 18.109375 27.296875 
Q 18.109375 17.390625 22.1875 11.75 
Q 26.265625 6.109375 33.40625 6.109375 
Q 40.53125 6.109375 44.609375 11.75 
Q 48.6875 17.390625 48.6875 27.296875 
z
" id="DejaVuSans-70"/>
      <path d="M 56.203125 29.59375 
L 56.203125 25.203125 
L 14.890625 25.203125 
Q 15.484375 15.921875 20.484375 11.0625 
Q 25.484375 6.203125 34.421875 6.203125 
Q 39.59375 6.203125 44.453125 7.46875 
Q 49.3125 8.734375 54.109375 11.28125 
L 54.109375 2.78125 
Q 49.265625 0.734375 44.1875 -0.34375 
Q 39.109375 -1.421875 33.890625 -1.421875 
Q 20.796875 -1.421875 13.15625 6.1875 
Q 5.515625 13.8125 5.515625 26.8125 
Q 5.515625 40.234375 12.765625 48.109375 
Q 20.015625 56 32.328125 56 
Q 43.359375 56 49.78125 48.890625 
Q 56.203125 41.796875 56.203125 29.59375 
z
M 47.21875 32.234375 
Q 47.125 39.59375 43.09375 43.984375 
Q 39.0625 48.390625 32.421875 48.390625 
Q 24.90625 48.390625 20.390625 44.140625 
Q 15.875 39.890625 15.1875 32.171875 
z
" id="DejaVuSans-65"/>
      <path d="M 34.28125 27.484375 
Q 23.390625 27.484375 19.1875 25 
Q 14.984375 22.515625 14.984375 16.5 
Q 14.984375 11.71875 18.140625 8.90625 
Q 21.296875 6.109375 26.703125 6.109375 
Q 34.1875 6.109375 38.703125 11.40625 
Q 43.21875 16.703125 43.21875 25.484375 
L 43.21875 27.484375 
z
M 52.203125 31.203125 
L 52.203125 0 
L 43.21875 0 
L 43.21875 8.296875 
Q 40.140625 3.328125 35.546875 0.953125 
Q 30.953125 -1.421875 24.3125 -1.421875 
Q 15.921875 -1.421875 10.953125 3.296875 
Q 6 8.015625 6 15.921875 
Q 6 25.140625 12.171875 29.828125 
Q 18.359375 34.515625 30.609375 34.515625 
L 43.21875 34.515625 
L 43.21875 35.40625 
Q 43.21875 41.609375 39.140625 45 
Q 35.0625 48.390625 27.6875 48.390625 
Q 23 48.390625 18.546875 47.265625 
Q 14.109375 46.140625 10.015625 43.890625 
L 10.015625 52.203125 
Q 14.9375 54.109375 19.578125 55.046875 
Q 24.21875 56 28.609375 56 
Q 40.484375 56 46.34375 49.84375 
Q 52.203125 43.703125 52.203125 31.203125 
z
" id="DejaVuSans-61"/>
      <path d="M 45.40625 46.390625 
L 45.40625 75.984375 
L 54.390625 75.984375 
L 54.390625 0 
L 45.40625 0 
L 45.40625 8.203125 
Q 42.578125 3.328125 38.25 0.953125 
Q 33.9375 -1.421875 27.875 -1.421875 
Q 17.96875 -1.421875 11.734375 6.484375 
Q 5.515625 14.40625 5.515625 27.296875 
Q 5.515625 40.1875 11.734375 48.09375 
Q 17.96875 56 27.875 56 
Q 33.9375 56 38.25 53.625 
Q 42.578125 51.265625 45.40625 46.390625 
z
M 14.796875 27.296875 
Q 14.796875 17.390625 18.875 11.75 
Q 22.953125 6.109375 30.078125 6.109375 
Q 37.203125 6.109375 41.296875 11.75 
Q 45.40625 17.390625 45.40625 27.296875 
Q 45.40625 37.203125 41.296875 42.84375 
Q 37.203125 48.484375 30.078125 48.484375 
Q 22.953125 48.484375 18.875 42.84375 
Q 14.796875 37.203125 14.796875 27.296875 
z
" id="DejaVuSans-64"/>
      <path d="M 9.421875 54.6875 
L 18.40625 54.6875 
L 18.40625 0 
L 9.421875 0 
z
M 9.421875 75.984375 
L 18.40625 75.984375 
L 18.40625 64.59375 
L 9.421875 64.59375 
z
" id="DejaVuSans-69"/>
      <path id="DejaVuSans-20"/>
      <path d="M 31 75.875 
Q 24.46875 64.65625 21.28125 53.65625 
Q 18.109375 42.671875 18.109375 31.390625 
Q 18.109375 20.125 21.3125 9.0625 
Q 24.515625 -2 31 -13.1875 
L 23.1875 -13.1875 
Q 15.875 -1.703125 12.234375 9.375 
Q 8.59375 20.453125 8.59375 31.390625 
Q 8.59375 42.28125 12.203125 53.3125 
Q 15.828125 64.359375 23.1875 75.875 
z
" id="DejaVuSans-28"/>
      <path d="M -1.3125 -20.796875 
L 13.375 54.6875 
L 22.40625 54.6875 
L 15.765625 20.65625 
Q 15.578125 19.625 15.421875 18.359375 
Q 15.28125 17.09375 15.28125 15.828125 
Q 15.28125 11.28125 18.140625 8.828125 
Q 21 6.390625 26.3125 6.390625 
Q 33.546875 6.390625 37.984375 10.484375 
Q 42.4375 14.59375 44 22.796875 
L 50.203125 54.6875 
L 59.1875 54.6875 
L 51.03125 12.640625 
Q 50.828125 11.71875 50.75 11.03125 
Q 50.6875 10.359375 50.6875 9.8125 
Q 50.6875 8.296875 51.296875 7.59375 
Q 51.90625 6.890625 53.21875 6.890625 
Q 53.71875 6.890625 54.5625 7.125 
Q 55.421875 7.375 56.984375 8.015625 
L 55.609375 0.78125 
Q 53.46875 -0.296875 51.515625 -0.859375 
Q 49.5625 -1.421875 47.703125 -1.421875 
Q 44.484375 -1.421875 42.65625 0.625 
Q 40.828125 2.6875 40.828125 6.296875 
Q 38.09375 2.390625 34.296875 0.484375 
Q 30.515625 -1.421875 25.390625 -1.421875 
Q 20.84375 -1.421875 17.453125 0.671875 
Q 14.0625 2.78125 12.984375 6.203125 
L 7.71875 -20.796875 
z
" id="DejaVuSans-Oblique-3bc"/>
      <path d="M 89.796875 33.015625 
L 83.40625 0 
L 74.421875 0 
L 80.71875 32.71875 
Q 81.109375 34.8125 81.296875 36.328125 
Q 81.5 37.84375 81.5 38.921875 
Q 81.5 43.3125 79.046875 45.75 
Q 76.609375 48.1875 72.21875 48.1875 
Q 65.671875 48.1875 60.546875 43.28125 
Q 55.421875 38.375 53.90625 30.515625 
L 47.90625 0 
L 38.921875 0 
L 45.3125 32.71875 
Q 45.703125 34.515625 45.890625 36.046875 
Q 46.09375 37.59375 46.09375 38.8125 
Q 46.09375 43.265625 43.65625 45.71875 
Q 41.21875 48.1875 36.921875 48.1875 
Q 30.28125 48.1875 25.140625 43.28125 
Q 20.015625 38.375 18.5 30.515625 
L 12.5 0 
L 3.515625 0 
L 14.203125 54.6875 
L 23.1875 54.6875 
L 21.484375 46.1875 
Q 25.140625 50.984375 30.046875 53.484375 
Q 34.96875 56 40.578125 56 
Q 46.53125 56 50.359375 52.875 
Q 54.203125 49.75 54.984375 44.1875 
Q 59.078125 49.953125 64.46875 52.96875 
Q 69.875 56 75.875 56 
Q 82.90625 56 86.734375 51.953125 
Q 90.578125 47.90625 90.578125 40.484375 
Q 90.578125 38.875 90.375 36.9375 
Q 90.1875 35.015625 89.796875 33.015625 
z
" id="DejaVuSans-Oblique-6d"/>
      <path d="M 8.015625 75.875 
L 15.828125 75.875 
Q 23.140625 64.359375 26.78125 53.3125 
Q 30.421875 42.28125 30.421875 31.390625 
Q 30.421875 20.453125 26.78125 9.375 
Q 23.140625 -1.703125 15.828125 -13.1875 
L 8.015625 -13.1875 
Q 14.5 -2 17.703125 9.0625 
Q 20.90625 20.125 20.90625 31.390625 
Q 20.90625 42.671875 17.703125 53.65625 
Q 14.5 64.65625 8.015625 75.875 
z
" id="DejaVuSans-29"/>
     </defs>
     <g transform="translate(20.234 112.339255)rotate(-90)scale(0.09 -0.09)">
      <use transform="translate(0 0.765625)" xlink:href="#DejaVuSans-53"/>
      <use transform="translate(63.476562 0.765625)" xlink:href="#DejaVuSans-70"/>
      <use transform="translate(126.953125 0.765625)" xlink:href="#DejaVuSans-72"/>
      <use transform="translate(168.066406 0.765625)" xlink:href="#DejaVuSans-65"/>
      <use transform="translate(229.589844 0.765625)" xlink:href="#DejaVuSans-61"/>
      <use transform="translate(290.869141 0.765625)" xlink:href="#DejaVuSans-64"/>
      <use transform="translate(354.345703 0.765625)" xlink:href="#DejaVuSans-69"/>
      <use transform="translate(382.128906 0.765625)" xlink:href="#DejaVuSans-6e"/>
      <use transform="translate(445.507812 0.765625)" xlink:href="#DejaVuSans-67"/>
      <use transform="translate(508.984375 0.765625)" xlink:href="#DejaVuSans-20"/>
      <use transform="translate(540.771484 0.765625)" xlink:href="#DejaVuSans-61"/>
      <use transform="translate(602.050781 0.765625)" xlink:href="#DejaVuSans-72"/>
      <use transform="translate(643.164062 0.765625)" xlink:href="#DejaVuSans-65"/>
      <use transform="translate(704.6875 0.765625)" xlink:href="#DejaVuSans-61"/>
      <use transform="translate(765.966797 0.765625)" xlink:href="#DejaVuSans-20"/>
      <use transform="translate(797.753906 0.765625)" xlink:href="#DejaVuSans-28"/>
      <use transform="translate(836.767578 0.765625)" xlink:href="#DejaVuSans-Oblique-3bc"/>
      <use transform="translate(900.390625 0.765625)" xlink:href="#DejaVuSans-Oblique-6d"/>
      <use transform="translate(1002.45263 39.046875)scale(0.7)" xlink:href="#DejaVuSans-32"/>
      <use transform="translate(1049.723138 0.765625)" xlink:href="#DejaVuSans-29"/>
     </g>
    </g>
   </g>
   <g id="PathCollection_1">
    <path clip-path="url(#pc5a05ee434)" d="M 56.142646 68.839488 
C 56.638796 68.839488 57.114691 68.642365 57.465522 68.291535 
C 57.816353 67.940704 58.013475 67.464809 58.013475 66.968659 
C 58.013475 66.472509 57.816353 65.996614 57.465522 65.645783 
C 57.114691 65.294953 56.638796 65.09783 56.142646 65.09783 
C 55.646497 65.09783 55.170601 65.294953 54.819771 65.645783 
C 54.46894 65.996614 54.271818 66.472509 54.271818 66.968659 
C 54.271818 67.464809 54.46894 67.940704 54.819771 68.291535 
C 55.170601 68.642365 55.646497 68.839488 56.142646 68.839488 
z
" style="fill:none;stroke:#000000;"/>
   </g>
   <g id="PathCollection_2">
    <path clip-path="url(#pc5a05ee434)" d="M 65.393252 84.282482 
C 65.889402 84.282482 66.365297 84.08536 66.716128 83.734529 
C 67.066958 83.383698 67.264081 82.907803 67.264081 82.411653 
C 67.264081 81.915504 67.066958 81.439608 66.716128 81.088778 
C 66.365297 80.737947 65.889402 80.540825 65.393252 80.540825 
C 64.897102 80.540825 64.421207 80.737947 64.070376 81.088778 
C 63.719546 81.439608 63.522423 81.915504 63.522423 82.411653 
C 63.522423 82.907803 63.719546 83.383698 64.070376 83.734529 
C 64.421207 84.08536 64.897102 84.282482 65.393252 84.282482 
z
" style="fill:none;stroke:#000000;"/>
   </g>
   <g id="PathCollection_3">
    <path clip-path="url(#pc5a05ee434)" d="M 77.406047 72.887433 
C 77.902196 72.887433 78.378092 72.690311 78.728922 72.33948 
C 79.079753 71.988649 79.276875 71.512754 79.276875 71.016604 
C 79.276875 70.520455 79.079753 70.044559 78.728922 69.693729 
C 78.378092 69.342898 77.902196 69.145776 77.406047 69.145776 
C 76.909897 69.145776 76.434002 69.342898 76.083171 69.693729 
C 75.73234 70.044559 75.535218 70.520455 75.535218 71.016604 
C 75.535218 71.512754 75.73234 71.988649 76.083171 72.33948 
C 76.434002 72.690311 76.909897 72.887433 77.406047 72.887433 
z
" style="fill:none;stroke:#000000;"/>
   </g>
   <g id="PathCollection_4">
    <path clip-path="url(#pc5a05ee434)" d="M 102.255889 81.014963 
C 102.752038 81.014963 103.227934 80.81784 103.578764 80.46701 
C 103.929595 80.116179 104.126718 79.640284 104.126718 79.144134 
C 104.126718 78.647984 103.929595 78.172089 103.578764 77.821258 
C 103.227934 77.470428 102.752038 77.273305 102.255889 77.273305 
C 101.759739 77.273305 101.283844 77.470428 100.933013 77.821258 
C 100.582182 78.172089 100.38506 78.647984 100.38506 79.144134 
C 100.38506 79.640284 100.582182 80.116179 100.933013 80.46701 
C 101.283844 80.81784 101.759739 81.014963 102.255889 81.014963 
z
" style="fill:none;stroke:#000000;"/>
   </g>
   <g id="PathCollection_5">
    <path clip-path="url(#pc5a05ee434)" d="M 112.625881 93.415301 
C 113.122031 93.415301 113.597926 93.218179 113.948757 92.867348 
C 114.299588 92.516518 114.49671 92.040622 114.49671 91.544473 
C 114.49671 91.048323 114.299588 90.572428 113.948757 90.221597 
C 113.597926 89.870766 113.122031 89.673644 112.625881 89.673644 
C 112.129732 89.673644 111.653836 89.870766 111.303006 90.221597 
C 110.952175 90.572428 110.755053 91.048323 110.755053 91.544473 
C 110.755053 92.040622 110.952175 92.516518 111.303006 92.867348 
C 111.653836 93.218179 112.129732 93.415301 112.625881 93.415301 
z
" style="fill:none;stroke:#000000;"/>
   </g>
   <g id="PathCollection_6">
    <path clip-path="url(#pc5a05ee434)" d="M 114.319534 71.039325 
C 114.815684 71.039325 115.291579 70.842202 115.64241 70.491371 
C 115.993241 70.140541 116.190363 69.664645 116.190363 69.168496 
C 116.190363 68.672346 115.993241 68.196451 115.64241 67.84562 
C 115.291579 67.494789 114.815684 67.297667 114.319534 67.297667 
C 113.823385 67.297667 113.34749 67.494789 112.996659 67.84562 
C 112.645828 68.196451 112.448706 68.672346 112.448706 69.168496 
C 112.448706 69.664645 112.645828 70.140541 112.996659 70.491371 
C 113.34749 70.842202 113.823385 71.039325 114.319534 71.039325 
z
" style="fill:none;stroke:#000000;"/>
   </g>
   <g id="line2d_7">
    <path clip-path="url(#pc5a05ee434)" d="M 65.343111 106.147814 
L 61.69809 105.795053 
L 60.487662 104.570766 
L 58.583131 102.468036 
L 57.456742 100.890988 
L 56.69363 99.31394 
L 56.293327 97.736892 
L 56.172895 96.159844 
L 56.070977 90.377335 
L 55.740747 88.800287 
L 55.214431 87.223239 
L 54.484902 85.646191 
L 53.220352 83.54346 
L 49.796674 78.286634 
L 49.098327 76.709586 
L 48.431161 74.606855 
L 47.690283 71.45276 
L 47.378349 69.350029 
L 47.391718 67.772981 
L 47.578366 66.721616 
L 47.92897 65.67025 
L 48.759794 64.093202 
L 49.896412 62.516155 
L 52.155738 59.887741 
L 54.375525 57.259328 
L 55.495137 55.68228 
L 56.391153 54.105232 
L 57.271299 52.002502 
L 59.369742 46.219993 
L 60.735053 43.591579 
L 62.682283 40.437483 
L 63.292207 39.514395 
L 64.701444 39.386118 
L 64.701444 39.386118 
L 66.043729 39.514395 
L 66.018697 39.62343 
L 65.758489 43.065897 
L 65.749524 46.219993 
L 65.746018 50.425454 
L 65.548399 57.259328 
L 65.571667 61.464789 
L 65.379382 63.56752 
L 64.976875 65.67025 
L 63.336104 72.504125 
L 63.158 75.132538 
L 62.943016 78.286634 
L 62.553108 80.389364 
L 61.794765 83.017778 
L 60.28861 87.223239 
L 57.885336 93.531431 
L 57.502883 95.108479 
L 57.321865 96.685526 
L 57.397574 98.262574 
L 57.774912 99.839622 
L 58.473795 101.41667 
L 59.471669 102.993718 
L 61.129715 105.096449 
L 61.69809 105.795053 
L 65.343111 106.147814 
L 65.343111 106.147814 
" style="fill:none;stroke:#000000;stroke-linecap:square;stroke-width:0.5;"/>
   </g>
   <g id="line2d_8">
    <path clip-path="url(#pc5a05ee434)" d="M 65.343111 106.147814 
L 61.69809 105.795053 
L 60.693031 104.570766 
L 59.109379 102.468036 
L 58.205454 100.890988 
L 57.613677 99.31394 
L 57.340694 97.736892 
L 57.356299 96.159844 
L 57.610835 94.582796 
L 58.223497 92.480065 
L 59.447541 89.325969 
L 61.260014 84.594826 
L 62.421068 80.915047 
L 62.867642 78.812317 
L 63.088373 76.709586 
L 63.406037 71.978442 
L 63.829699 69.875712 
L 65.379382 63.56752 
L 65.571667 61.464789 
L 65.574971 58.310693 
L 65.559839 54.105232 
L 65.76081 46.745675 
L 65.758489 43.065897 
L 66.018697 39.62343 
L 66.043729 39.514395 
L 64.701444 39.386118 
L 66.071082 39.62343 
L 66.848582 45.168627 
L 68.551685 54.630915 
L 69.33405 57.259328 
L 71.685452 64.093202 
L 71.938684 65.67025 
L 72.011956 67.247298 
L 71.891623 69.350029 
L 71.303613 74.081173 
L 70.799082 76.709586 
L 70.161541 78.812317 
L 68.533844 83.54346 
L 68.274711 85.120508 
L 68.255594 86.697556 
L 68.476039 88.274604 
L 68.917622 89.851652 
L 69.792832 91.954383 
L 71.973488 96.685526 
L 72.222388 97.736892 
L 72.300594 98.788257 
L 72.189534 99.839622 
L 71.889229 100.890988 
L 71.130419 102.468036 
L 69.757019 104.570766 
L 68.886999 105.795053 
L 65.343111 106.147814 
L 65.343111 106.147814 
" style="fill:none;stroke:#000000;stroke-linecap:square;stroke-width:0.5;"/>
   </g>
   <g id="line2d_9">
    <path clip-path="url(#pc5a05ee434)" d="M 65.343111 106.147814 
L 68.886999 105.795053 
L 69.757019 104.570766 
L 71.130419 102.468036 
L 71.889229 100.890988 
L 72.189534 99.839622 
L 72.300594 98.788257 
L 72.222388 97.736892 
L 71.795101 96.159844 
L 70.847084 94.057113 
L 69.320289 90.903017 
L 68.747428 89.325969 
L 68.37686 87.748922 
L 68.234791 86.171874 
L 68.335289 84.594826 
L 68.668533 83.017778 
L 69.375844 80.915047 
L 70.660578 77.235269 
L 71.133389 75.132538 
L 71.651177 71.45276 
L 72.001096 67.772981 
L 71.938684 65.67025 
L 71.685452 64.093202 
L 71.090942 61.990472 
L 68.427594 54.105232 
L 67.838605 50.951136 
L 66.043729 39.514395 
L 64.701444 39.386118 
L 65.984778 39.386118 
L 67.478352 39.62343 
L 70.247385 44.117262 
L 71.551962 46.745675 
L 72.547739 49.374088 
L 73.817523 53.053867 
L 74.568447 54.630915 
L 75.540585 56.207963 
L 77.160869 58.310693 
L 81.576653 63.56752 
L 82.519532 65.144568 
L 82.953501 66.195933 
L 83.220963 67.247298 
L 83.334222 68.824346 
L 83.184519 70.401394 
L 82.649379 73.029807 
L 81.950576 75.658221 
L 81.145292 77.760951 
L 80.308169 79.337999 
L 78.925239 81.44073 
L 76.796602 84.594826 
L 75.692364 86.697556 
L 75.098587 88.274604 
L 74.704327 89.851652 
L 74.496176 91.4287 
L 74.451972 93.531431 
L 74.458221 97.211209 
L 74.163704 98.788257 
L 73.780458 99.839622 
L 72.910672 101.388742 
L 72.103091 102.468036 
L 70.198561 104.570766 
L 68.988132 105.795053 
L 65.343111 106.147814 
L 65.343111 106.147814 
" style="fill:none;stroke:#000000;stroke-linecap:square;stroke-width:0.5;"/>
   </g>
   <g id="line2d_10">
    <path clip-path="url(#pc5a05ee434)" d="M 65.343111 106.147814 
L 68.988132 105.795053 
L 70.198561 104.570766 
L 72.103091 102.468036 
L 73.22948 100.890988 
L 73.992592 99.31394 
L 74.392896 97.736892 
L 74.513327 96.159844 
L 74.615245 90.377335 
L 74.945475 88.800287 
L 75.471791 87.223239 
L 76.20132 85.646191 
L 77.465871 83.54346 
L 80.889549 78.286634 
L 81.587895 76.709586 
L 82.255061 74.606855 
L 82.99594 71.45276 
L 83.307873 69.350029 
L 83.294504 67.772981 
L 83.107856 66.721616 
L 82.757253 65.67025 
L 81.926429 64.093202 
L 80.78981 62.516155 
L 78.530485 59.887741 
L 76.310697 57.259328 
L 75.191085 55.68228 
L 74.295069 54.105232 
L 73.414923 52.002502 
L 71.31648 46.219993 
L 69.951169 43.591579 
L 68.003939 40.437483 
L 67.394015 39.514395 
L 65.984778 39.386118 
L 64.701444 39.386118 
L 63.20787 39.62343 
L 60.438837 44.117262 
L 59.13426 46.745675 
L 58.138483 49.374088 
L 56.868699 53.053867 
L 56.117775 54.630915 
L 55.145637 56.207963 
L 53.525353 58.310693 
L 49.109569 63.56752 
L 48.16669 65.144568 
L 47.732721 66.195933 
L 47.465259 67.247298 
L 47.352 68.824346 
L 47.501703 70.401394 
L 48.036843 73.029807 
L 48.735646 75.658221 
L 49.54093 77.760951 
L 50.378054 79.337999 
L 51.760983 81.44073 
L 53.88962 84.594826 
L 54.993858 86.697556 
L 55.587635 88.274604 
L 55.981896 89.851652 
L 56.190046 91.4287 
L 56.23425 93.531431 
L 56.228001 97.211209 
L 56.522518 98.788257 
L 56.905765 99.839622 
L 57.77555 101.388742 
L 58.583131 102.468036 
L 60.487662 104.570766 
L 61.69809 105.795053 
L 65.343111 106.147814 
L 65.343111 106.147814 
" style="fill:none;stroke:#000000;stroke-linecap:square;"/>
   </g>
   <g id="line2d_11">
    <path clip-path="url(#pc5a05ee434)" d="M 59.346074 74.841434 
L 71.340148 74.841434 
" style="fill:none;stroke:#000000;stroke-linecap:square;"/>
   </g>
   <g id="line2d_12">
    <path clip-path="url(#pc5a05ee434)" d="M 63.344099 66.833947 
L 67.342123 66.833947 
" style="fill:none;stroke:#000000;stroke-linecap:square;"/>
   </g>
   <g id="line2d_13">
    <path clip-path="url(#pc5a05ee434)" d="M 63.344099 82.848921 
L 67.342123 82.848921 
" style="fill:none;stroke:#000000;stroke-linecap:square;"/>
   </g>
   <g id="line2d_14">
    <path clip-path="url(#pc5a05ee434)" d="M 65.343111 82.848921 
L 65.343111 66.833947 
" style="fill:none;stroke:#000000;stroke-linecap:square;"/>
   </g>
   <g id="line2d_15">
    <path clip-path="url(#pc5a05ee434)" d="M 110.320889 111.496959 
L 109.636731 110.926683 
L 108.553159 109.215853 
L 107.557971 108.0753 
L 106.301921 106.934747 
L 104.445608 105.564154 
L 102.102616 104.083365 
L 97.442474 101.231982 
L 95.144168 99.521152 
L 93.962753 98.380599 
L 93.095486 97.240046 
L 92.55273 96.099493 
L 92.329778 94.95894 
L 92.408189 93.818387 
L 92.75949 92.677834 
L 93.345419 91.537281 
L 94.540844 89.826451 
L 97.096345 86.404792 
L 98.026865 84.693962 
L 98.614912 82.983133 
L 98.857213 81.272303 
L 98.826921 78.991197 
L 98.845953 77.280368 
L 99.132105 75.569538 
L 99.680265 73.858708 
L 100.660532 71.007326 
L 101.042106 69.296496 
L 102.440366 61.312625 
L 103.369802 57.320689 
L 104.445196 53.89903 
L 106.060838 48.766541 
L 108.873674 39.411774 
L 109.182945 39.07184 
L 109.182945 39.07184 
L 109.36424 39.411774 
L 108.923975 45.915158 
L 108.338613 49.907094 
L 106.848881 59.601795 
L 106.49566 64.734284 
L 106.53772 67.585666 
L 106.557389 70.437049 
L 106.330289 72.147879 
L 105.547485 76.139814 
L 105.54868 77.850644 
L 106.021632 82.983133 
L 105.763347 84.693962 
L 105.227409 86.404792 
L 104.445547 88.115622 
L 102.412165 92.107557 
L 101.881388 93.818387 
L 101.726023 94.95894 
L 101.7521 96.099493 
L 101.97406 97.240046 
L 102.397762 98.380599 
L 103.018843 99.521152 
L 104.282775 101.231982 
L 108.58404 106.364471 
L 109.155531 107.505024 
L 109.532666 108.645577 
L 109.8161 110.356406 
L 109.874238 110.926683 
L 110.320889 111.496959 
L 110.320889 111.496959 
" style="fill:none;stroke:#000000;stroke-linecap:square;stroke-width:0.5;"/>
   </g>
   <g id="line2d_16">
    <path clip-path="url(#pc5a05ee434)" d="M 110.320889 111.496959 
L 109.874238 110.926683 
L 109.532666 108.645577 
L 109.155531 107.505024 
L 108.357912 106.000296 
L 107.35203 104.653641 
L 103.018843 99.521152 
L 102.397762 98.380599 
L 101.97406 97.240046 
L 101.7521 96.099493 
L 101.726023 94.95894 
L 101.881388 93.818387 
L 102.412165 92.107557 
L 103.218797 90.396728 
L 104.991083 86.975069 
L 105.614666 85.264239 
L 105.967381 83.553409 
L 106.035298 81.84258 
L 105.859467 80.13175 
L 105.516248 77.280368 
L 105.612272 75.569538 
L 106.083399 73.288432 
L 106.505489 71.007326 
L 106.592657 69.296496 
L 106.582939 63.023454 
L 107.085262 57.320689 
L 107.640288 53.89903 
L 108.694614 47.625988 
L 109.093347 44.204329 
L 109.36424 39.411774 
L 109.182945 39.07184 
L 109.36424 39.411774 
L 109.181056 45.344882 
L 109.01284 48.307774 
L 108.700855 50.477371 
L 107.297708 58.461242 
L 107.237893 60.172072 
L 107.378415 61.882901 
L 107.859526 64.164007 
L 108.828838 68.155943 
L 109.775582 72.718155 
L 111.463956 78.420921 
L 112.095339 80.13175 
L 113.01425 81.84258 
L 114.280025 83.553409 
L 115.838424 85.264239 
L 118.249368 87.545345 
L 122.59539 91.537281 
L 123.552075 92.677834 
L 124.268945 93.818387 
L 124.705492 94.95894 
L 124.831422 96.099493 
L 124.628387 97.240046 
L 124.093448 98.380599 
L 123.238875 99.521152 
L 122.090943 100.661705 
L 119.927061 102.372535 
L 114.497446 106.364471 
L 113.292304 107.505024 
L 112.318376 108.645577 
L 111.560265 109.78613 
L 111.005046 110.926683 
L 110.320889 111.496959 
L 110.320889 111.496959 
" style="fill:none;stroke:#000000;stroke-linecap:square;stroke-width:0.5;"/>
   </g>
   <g id="line2d_17">
    <path clip-path="url(#pc5a05ee434)" d="M 110.320889 111.496959 
L 111.005046 110.926683 
L 111.560265 109.78613 
L 112.318376 108.645577 
L 113.292304 107.505024 
L 114.929599 106.000296 
L 116.69306 104.653641 
L 121.42019 101.231982 
L 122.699302 100.091429 
L 123.70482 98.950876 
L 124.401965 97.810323 
L 124.771591 96.66977 
L 124.808761 95.529217 
L 124.524386 94.388664 
L 123.943277 93.24811 
L 123.100708 92.107557 
L 121.452799 90.396728 
L 114.770987 84.123686 
L 113.398803 82.412856 
L 112.363771 80.702027 
L 111.651665 78.991197 
L 110.447745 74.999261 
L 109.490324 71.577602 
L 107.307768 61.312625 
L 107.237615 59.601795 
L 107.422104 57.320689 
L 108.009371 53.89903 
L 108.96169 48.766541 
L 109.142294 46.485435 
L 109.36424 39.411774 
L 109.182945 39.07184 
L 111.458833 39.07184 
L 111.84333 39.642116 
L 113.570683 45.344882 
L 116.004795 53.328753 
L 117.423467 57.890965 
L 118.322823 61.882901 
L 119.1924 66.445113 
L 119.833666 70.437049 
L 120.337765 72.147879 
L 121.639323 76.139814 
L 121.825209 77.850644 
L 121.90952 82.412856 
L 122.183439 83.553409 
L 122.888562 85.264239 
L 123.924164 86.975069 
L 125.655993 89.256175 
L 127.296359 91.537281 
L 127.882288 92.677834 
L 128.233589 93.818387 
L 128.312 94.95894 
L 128.089048 96.099493 
L 127.546292 97.240046 
L 126.679024 98.380599 
L 125.49761 99.521152 
L 124.028132 100.661705 
L 121.39845 102.372535 
L 115.566848 106.000296 
L 113.67824 107.505024 
L 112.55496 108.645577 
L 111.68075 109.78613 
L 111.005046 110.926683 
L 110.320889 111.496959 
L 110.320889 111.496959 
" style="fill:none;stroke:#000000;stroke-linecap:square;stroke-width:0.5;"/>
   </g>
   <g id="line2d_18">
    <path clip-path="url(#pc5a05ee434)" d="M 110.320889 111.496959 
L 111.005046 110.926683 
L 112.088619 109.215853 
L 113.083806 108.0753 
L 114.339857 106.934747 
L 116.19617 105.564154 
L 118.539161 104.083365 
L 123.199304 101.231982 
L 125.49761 99.521152 
L 126.679024 98.380599 
L 127.546292 97.240046 
L 128.089048 96.099493 
L 128.312 94.95894 
L 128.233589 93.818387 
L 127.882288 92.677834 
L 127.296359 91.537281 
L 126.100934 89.826451 
L 123.545433 86.404792 
L 122.614912 84.693962 
L 122.026866 82.983133 
L 121.784565 81.272303 
L 121.814857 78.991197 
L 121.795825 77.280368 
L 121.509673 75.569538 
L 120.961513 73.858708 
L 119.981246 71.007326 
L 119.599671 69.296496 
L 118.201412 61.312625 
L 117.271976 57.320689 
L 116.196582 53.89903 
L 114.580939 48.766541 
L 111.768104 39.411774 
L 111.458833 39.07184 
L 109.182945 39.07184 
L 108.798448 39.642116 
L 107.071095 45.344882 
L 104.636983 53.328753 
L 103.218311 57.890965 
L 102.318955 61.882901 
L 101.449377 66.445113 
L 100.808112 70.437049 
L 100.304012 72.147879 
L 99.002455 76.139814 
L 98.816569 77.850644 
L 98.732258 82.412856 
L 98.458339 83.553409 
L 97.753216 85.264239 
L 96.717614 86.975069 
L 94.985785 89.256175 
L 93.345419 91.537281 
L 92.75949 92.677834 
L 92.408189 93.818387 
L 92.329778 94.95894 
L 92.55273 96.099493 
L 93.095486 97.240046 
L 93.962753 98.380599 
L 95.144168 99.521152 
L 96.613645 100.661705 
L 99.243328 102.372535 
L 105.074929 106.000296 
L 106.963538 107.505024 
L 108.086818 108.645577 
L 108.961028 109.78613 
L 109.636731 110.926683 
L 110.320889 111.496959 
L 110.320889 111.496959 
" style="fill:none;stroke:#000000;stroke-linecap:square;"/>
   </g>
   <g id="line2d_19">
    <path clip-path="url(#pc5a05ee434)" d="M 104.323852 80.625952 
L 116.317926 80.625952 
" style="fill:none;stroke:#000000;stroke-linecap:square;"/>
   </g>
   <g id="line2d_20">
    <path clip-path="url(#pc5a05ee434)" d="M 108.321877 69.416089 
L 112.319901 69.416089 
" style="fill:none;stroke:#000000;stroke-linecap:square;"/>
   </g>
   <g id="line2d_21">
    <path clip-path="url(#pc5a05ee434)" d="M 108.321877 91.835814 
L 112.319901 91.835814 
" style="fill:none;stroke:#000000;stroke-linecap:square;"/>
   </g>
   <g id="line2d_22">
    <path clip-path="url(#pc5a05ee434)" d="M 110.320889 91.835814 
L 110.320889 69.416089 
" style="fill:none;stroke:#000000;stroke-linecap:square;"/>
   </g>
   <g id="line2d_23">
    <path clip-path="url(#pc5a05ee434)" d="M 65.343111 33.060555 
L 65.343111 30.670526 
L 110.320889 30.670526 
L 110.320889 33.060555 
" style="fill:none;stroke:#000000;stroke-linecap:square;"/>
   </g>
   <g id="patch_9">
    <path d="M 43.304 115.118215 
L 43.304 11.550294 
" style="fill:none;stroke:#000000;stroke-linecap:square;stroke-linejoin:miter;stroke-width:0.8;"/>
   </g>
   <g id="patch_10">
    <path d="M 43.304 115.118215 
L 132.36 115.118215 
" style="fill:none;stroke:#000000;stroke-linecap:square;stroke-linejoin:miter;stroke-width:0.8;"/>
   </g>
   <g id="text_8">
    <!-- P = 0.461 -->
    <defs>
     <path d="M 19.671875 64.796875 
L 19.671875 37.40625 
L 32.078125 37.40625 
Q 38.96875 37.40625 42.71875 40.96875 
Q 46.484375 44.53125 46.484375 51.125 
Q 46.484375 57.671875 42.71875 61.234375 
Q 38.96875 64.796875 32.078125 64.796875 
z
M 9.8125 72.90625 
L 32.078125 72.90625 
Q 44.34375 72.90625 50.609375 67.359375 
Q 56.890625 61.8125 56.890625 51.125 
Q 56.890625 40.328125 50.609375 34.8125 
Q 44.34375 29.296875 32.078125 29.296875 
L 19.671875 29.296875 
L 19.671875 0 
L 9.8125 0 
z
" id="DejaVuSans-50"/>
     <path d="M 10.59375 45.40625 
L 73.1875 45.40625 
L 73.1875 37.203125 
L 10.59375 37.203125 
z
M 10.59375 25.484375 
L 73.1875 25.484375 
L 73.1875 17.1875 
L 10.59375 17.1875 
z
" id="DejaVuSans-3d"/>
     <path d="M 10.6875 12.40625 
L 21 12.40625 
L 21 0 
L 10.6875 0 
z
" id="DejaVuSans-2e"/>
     <path d="M 12.40625 8.296875 
L 28.515625 8.296875 
L 28.515625 63.921875 
L 10.984375 60.40625 
L 10.984375 69.390625 
L 28.421875 72.90625 
L 38.28125 72.90625 
L 38.28125 8.296875 
L 54.390625 8.296875 
L 54.390625 0 
L 12.40625 0 
z
" id="DejaVuSans-31"/>
    </defs>
    <g transform="translate(68.0745 29.006776)scale(0.08 -0.08)">
     <use xlink:href="#DejaVuSans-50"/>
     <use x="60.302734" xlink:href="#DejaVuSans-20"/>
     <use x="92.089844" xlink:href="#DejaVuSans-3d"/>
     <use x="175.878906" xlink:href="#DejaVuSans-20"/>
     <use x="207.666016" xlink:href="#DejaVuSans-30"/>
     <use x="271.289062" xlink:href="#DejaVuSans-2e"/>
     <use x="303.076172" xlink:href="#DejaVuSans-34"/>
     <use x="366.699219" xlink:href="#DejaVuSans-36"/>
     <use x="430.322266" xlink:href="#DejaVuSans-31"/>
    </g>
   </g>
  </g>
 </g>
 <defs>
  <clipPath id="pc5a05ee434">
   <rect height="103.567921" width="89.056" x="43.304" y="11.550294"/>
  </clipPath>
 </defs>
</svg>
